<?xml version="1.0" encoding="UTF-8"?>
<svg width="220px" height="20px" viewBox="0 0 220 20" version="1.1" xmlns="http://www.w3.org/2000/svg" xmlns:xlink="http://www.w3.org/1999/xlink">
    <!-- Generator: Sketch 52.4 (67378) - http://www.bohemiancoding.com/sketch -->
    <title>лого_10 лет</title>
    <desc>Created with Sketch.</desc>
    <defs>
        <polygon id="path-1" points="0.379729182 0.298028594 25.7575896 0.298028594 25.7575896 19.0125 0.379729182 19.0125"></polygon>
    </defs>
    <g id="Page-1" stroke="none" stroke-width="1" fill="none" fill-rule="evenodd">
        <g id="Звезды-РР-2-Copy-5" transform="translate(-882.000000, -386.000000)">
            <g id="лого_10-лет" transform="translate(882.000000, 386.000000)">
                <path d="M182.980769,1.24349071 C182.980769,1.32473162 182.965853,1.40184163 182.936021,1.47527973 C182.905736,1.54871784 182.866412,1.61802505 182.818047,1.68411934 C182.769231,1.74975465 182.71499,1.81080007 182.655777,1.86633764 C182.595661,1.92187521 182.535544,1.97419986 182.475879,2.02193463 C182.415763,2.07058737 182.349318,2.1196991 182.275641,2.1701878 C182.202416,2.22113549 182.131903,2.27667305 182.066363,2.33771848 C181.999918,2.39784593 181.942965,2.46715314 181.895957,2.54472214 C181.848496,2.62183215 181.82002,2.71087585 181.809624,2.81231223 L182.973537,2.81231223 L182.973537,3.17307692 L181.394231,3.17307692 L181.394231,2.83572063 C181.394231,2.72923538 181.411407,2.6314709 181.445307,2.54150922 C181.478756,2.45200653 181.523956,2.36847068 181.580005,2.29136067 C181.636054,2.21425066 181.699786,2.1431075 181.772107,2.07701321 C181.84488,2.0113779 181.920817,1.95079146 182.00037,1.8952539 C182.070431,1.84706014 182.139587,1.79794841 182.208292,1.74700072 C182.276997,1.69651202 182.337566,1.64510535 182.391806,1.59186272 C182.445143,1.5386201 182.488083,1.48400051 182.520628,1.42846294 C182.553172,1.37292537 182.569444,1.31463388 182.569444,1.25404744 C182.569444,1.19850987 182.556788,1.14985713 182.531928,1.10808921 C182.506616,1.06632129 182.474523,1.03189717 182.434295,1.0038989 C182.394518,0.976359606 182.348866,0.955246151 182.296433,0.941476506 C182.243549,0.927247874 182.191568,0.920363051 182.139135,0.920363051 C182.044214,0.920363051 181.952457,0.938263589 181.864316,0.973605677 C181.775271,1.00894777 181.69617,1.05622355 181.626561,1.11451504 L181.420899,0.797813214 C181.510396,0.718408262 181.619329,0.654149921 181.746343,0.603661223 C181.873356,0.554090502 182.012122,0.528846154 182.161736,0.528846154 C182.263437,0.528846154 182.364234,0.54215681 182.462771,0.566942171 C182.561308,0.592645508 182.648545,0.633495454 182.724482,0.690868973 C182.800871,0.747783504 182.862344,0.821221609 182.909804,0.9107243 C182.957265,1.00114497 182.980769,1.11176111 182.980769,1.24349071" id="Fill-89" fill="#FFFFFF"></path>
                <path d="M184.701206,1.31304763 C184.701206,1.24014104 184.688611,1.17862611 184.66432,1.12850283 C184.63913,1.07792389 184.607642,1.0373696 184.569407,1.00592863 C184.530722,0.974943332 184.488438,0.952160023 184.442106,0.938490038 C184.396673,0.924364387 184.351241,0.917529395 184.306708,0.917529395 C184.261725,0.917529395 184.216743,0.924364387 184.170861,0.938490038 C184.124528,0.952160023 184.082694,0.974943332 184.044459,1.00592863 C184.005774,1.0373696 183.973836,1.07792389 183.949096,1.12850283 C183.924356,1.17862611 183.91221,1.24014104 183.91221,1.31304763 L183.91221,2.40391243 C183.91221,2.47727469 183.924356,2.53787829 183.949096,2.58709023 C183.973836,2.63584651 184.005774,2.67594513 184.044459,2.70693043 C184.082694,2.73882707 184.124528,2.76161037 184.170861,2.77528036 C184.216743,2.78895034 184.261725,2.79578534 184.306708,2.79578534 C184.351241,2.79578534 184.396673,2.78895034 184.442106,2.77528036 C184.488438,2.76161037 184.530722,2.73882707 184.569407,2.70693043 C184.607642,2.67594513 184.63913,2.63584651 184.66432,2.58709023 C184.688611,2.53787829 184.701206,2.47727469 184.701206,2.40391243 L184.701206,1.31304763 Z M185.096154,2.49413433 C185.096154,2.60486121 185.072313,2.70282944 185.025081,2.78803901 C184.978299,2.87370425 184.917123,2.94478817 184.841552,3.00129078 C184.765981,3.05779338 184.681414,3.100626 184.58695,3.12933297 C184.492936,3.15849561 184.398923,3.17307692 184.304909,3.17307692 C184.210895,3.17307692 184.115982,3.15849561 184.020618,3.12933297 C183.925255,3.100626 183.839788,3.05779338 183.764217,3.00129078 C183.689096,2.94478817 183.62747,2.87370425 183.580238,2.78803901 C183.533456,2.70282944 183.509615,2.60486121 183.509615,2.49413433 L183.509615,1.2191804 C183.509615,1.10617519 183.533906,1.00683996 183.582037,0.92163039 C183.630619,0.835965151 183.692245,0.764425562 183.767816,0.706555959 C183.843387,0.648686356 183.928404,0.604486738 184.022418,0.574412771 C184.116431,0.543883137 184.210895,0.528846154 184.304909,0.528846154 C184.398923,0.528846154 184.492936,0.543883137 184.58695,0.574412771 C184.681414,0.604486738 184.765981,0.648686356 184.841552,0.706555959 C184.917123,0.764425562 184.978299,0.835965151 185.025081,0.92163039 C185.072313,1.00683996 185.096154,1.10617519 185.096154,1.2191804 L185.096154,2.49413433 Z" id="Fill-90" fill="#FFFFFF"></path>
                <path d="M186.816479,1.31304763 C186.816479,1.24014104 186.80433,1.17862611 186.779582,1.12850283 C186.754385,1.07792389 186.722888,1.0373696 186.684642,1.00592863 C186.645946,0.974943332 186.60365,0.952160023 186.557755,0.938490038 C186.51186,0.924364387 186.466864,0.917529395 186.421869,0.917529395 C186.376873,0.917529395 186.331878,0.924364387 186.285983,0.938490038 C186.240087,0.952160023 186.197792,0.974943332 186.159546,1.00592863 C186.12085,1.0373696 186.089353,1.07792389 186.064155,1.12850283 C186.039408,1.17862611 186.027259,1.24014104 186.027259,1.31304763 L186.027259,2.40391243 C186.027259,2.47727469 186.039408,2.53787829 186.064155,2.58709023 C186.089353,2.63584651 186.12085,2.67594513 186.159546,2.70693043 C186.197792,2.73882707 186.240087,2.76161037 186.285983,2.77528036 C186.331878,2.78895034 186.376873,2.79578534 186.421869,2.79578534 C186.466864,2.79578534 186.51186,2.78895034 186.557755,2.77528036 C186.60365,2.76161037 186.645946,2.73882707 186.684642,2.70693043 C186.722888,2.67594513 186.754385,2.63584651 186.779582,2.58709023 C186.80433,2.53787829 186.816479,2.47727469 186.816479,2.40391243 L186.816479,1.31304763 Z M187.211538,2.49413433 C187.211538,2.60486121 187.187691,2.70282944 187.140896,2.78803901 C187.09365,2.87370425 187.032907,2.94478817 186.957314,3.00129078 C186.881722,3.05779338 186.796681,3.100626 186.70219,3.12933297 C186.60815,3.15849561 186.514109,3.17307692 186.420069,3.17307692 C186.326029,3.17307692 186.231088,3.15849561 186.135698,3.12933297 C186.040308,3.100626 185.954816,3.05779338 185.879224,3.00129078 C185.804082,2.94478817 185.742438,2.87370425 185.695643,2.78803901 C185.648398,2.70282944 185.625,2.60486121 185.625,2.49413433 L185.625,1.2191804 C185.625,1.10617519 185.648848,1.00683996 185.697443,0.92163039 C185.745588,0.835965151 185.807681,0.764425562 185.883274,0.706555959 C185.958866,0.648686356 186.043457,0.604486738 186.137498,0.574412771 C186.231538,0.543883137 186.326029,0.528846154 186.420069,0.528846154 C186.514109,0.528846154 186.60815,0.543883137 186.70219,0.574412771 C186.796681,0.604486738 186.881722,0.648686356 186.957314,0.706555959 C187.032907,0.764425562 187.09365,0.835965151 187.140896,0.92163039 C187.187691,1.00683996 187.211538,1.10617519 187.211538,1.2191804 L187.211538,2.49413433 Z" id="Fill-91" fill="#FFFFFF"></path>
                <path d="M188.915834,1.30028898 C188.915834,1.22920505 188.904908,1.16905712 188.882146,1.12030084 C188.858928,1.07108889 188.829793,1.03099027 188.792917,0.999093639 C188.756498,0.967652673 188.715525,0.944869365 188.670001,0.930743713 C188.624476,0.917073728 188.578951,0.90978307 188.533426,0.90978307 C188.488357,0.90978307 188.441921,0.917985061 188.395486,0.933022044 C188.348596,0.948059028 188.306258,0.971298002 188.268472,1.00273897 C188.230686,1.0346356 188.19973,1.07473422 188.175601,1.12394617 C188.151473,1.17315811 188.139637,1.23193905 188.139637,1.30028898 L188.139637,1.49303576 C188.139637,1.61196463 188.168318,1.69580721 188.225223,1.74501915 C188.282129,1.79468677 188.350417,1.81883707 188.431451,1.81883707 C188.504746,1.81883707 188.580772,1.80334442 188.66044,1.77190346 C188.739653,1.74000683 188.82524,1.69671854 188.915834,1.64112727 L188.915834,1.30028898 Z M189.326923,2.47135103 C189.326923,2.58435623 189.305071,2.68460279 189.260912,2.77117936 C189.216753,2.8582116 189.157571,2.93157385 189.083366,2.99172179 C189.009615,3.05186972 188.923574,3.09743634 188.825695,3.12751031 C188.727362,3.15803994 188.624931,3.17307692 188.516582,3.17307692 C188.35588,3.17307692 188.214298,3.14847095 188.092746,3.100626 C187.97074,3.05232539 187.866033,2.98762079 187.77817,2.90651222 L188.000331,2.58071091 C188.153294,2.71649942 188.320826,2.78439368 188.501559,2.78439368 C188.541621,2.78439368 188.58669,2.77755869 188.635402,2.76343304 C188.684113,2.75021872 188.729638,2.72743541 188.771066,2.69645011 C188.812493,2.66546481 188.847092,2.62536619 188.874407,2.57660991 C188.902177,2.52785363 188.915834,2.46861703 188.915834,2.3989001 L188.915834,2.03163317 C188.797925,2.09679344 188.696405,2.14190439 188.610818,2.16833302 C188.525687,2.194306 188.446474,2.20752031 188.373634,2.20752031 C188.177422,2.20752031 188.023093,2.14600538 187.909737,2.02297552 C187.796835,1.89948999 187.740385,1.7322605 187.740385,1.5208314 L187.740385,1.24560904 C187.740385,1.13214816 187.762237,1.03144594 187.806396,0.941679701 C187.850099,0.852824799 187.908371,0.777184215 187.981211,0.715669282 C188.054506,0.654610016 188.138271,0.607676401 188.233873,0.576235435 C188.329475,0.54479447 188.430085,0.528846154 188.535247,0.528846154 C188.643596,0.528846154 188.745116,0.54479447 188.840718,0.576235435 C188.935865,0.607676401 189.019631,0.653698684 189.091105,0.713846618 C189.162579,0.773994552 189.21994,0.848723803 189.262733,0.938490038 C189.305526,1.02780061 189.326923,1.1289585 189.326923,1.24196371 L189.326923,2.47135103 Z" id="Fill-92" fill="#FFFFFF"></path>
                <path d="M188.798051,16.5827096 C188.798051,16.6638377 188.782766,16.7408406 188.752645,16.8141766 C188.722075,16.8870544 188.683413,16.9562653 188.63441,17.0218095 C188.585857,17.0873536 188.53146,17.1478559 188.472117,17.2033163 C188.411876,17.2587767 188.352084,17.310112 188.292291,17.3577804 C188.232949,17.4059072 188.165964,17.4544924 188.092685,17.5049109 C188.019406,17.5553295 187.949723,17.6103316 187.883637,17.6708339 C187.817551,17.7313361 187.760906,17.7996304 187.713252,17.8766333 C187.666048,17.9536362 187.636826,18.0425562 187.626486,18.1438516 L188.783665,18.1493518 L188.781867,18.5096154 L187.211538,18.5022818 L187.213337,18.1653941 C187.213786,18.0595151 187.23087,17.9614281 187.265037,17.8715914 C187.298754,17.782213 187.34416,17.6992516 187.399906,17.622707 C187.456102,17.5457041 187.520389,17.4746598 187.592769,17.409574 C187.664699,17.3440299 187.740676,17.283986 187.820698,17.2289839 C187.889931,17.1813155 187.959164,17.1322719 188.027498,17.0823117 C188.096281,17.0318932 188.156973,16.9805579 188.21092,16.9278476 C188.263969,16.8751373 188.307577,16.8205936 188.339945,16.7655915 C188.372314,16.7101311 188.388948,16.6519205 188.388948,16.5914183 C188.389397,16.5359579 188.37681,16.4873727 188.352533,16.4456628 C188.327357,16.4034945 188.295888,16.3691183 188.255877,16.3411589 C188.216315,16.3131995 188.171359,16.291657 188.119209,16.2779065 C188.06661,16.2636976 188.01491,16.256364 187.962761,16.256364 C187.868352,16.2559057 187.777091,16.2728646 187.688976,16.3081576 C187.600412,16.3429923 187.521738,16.3892857 187.452055,16.4474962 L187.248852,16.1303176 C187.338316,16.0514813 187.44711,15.9873122 187.573438,15.9382687 C187.700215,15.8892252 187.838231,15.8649326 187.987037,15.865391 C188.088189,15.8658493 188.188442,15.8791415 188.286447,15.9048091 C188.383553,15.9309351 188.470769,15.9721867 188.545846,16.0294805 C188.621822,16.0867743 188.682513,16.1605687 188.729268,16.2504055 C188.776023,16.3407005 188.798951,16.4516214 188.798051,16.5827096" id="Fill-93" fill="#FFFFFF"></path>
                <path d="M189.990667,16.6515483 C189.990667,16.578174 189.978566,16.516649 189.954813,16.4665175 C189.929715,16.4159302 189.898792,16.3753692 189.860697,16.3439231 C189.822154,16.3120212 189.780474,16.2892342 189.734313,16.2751062 C189.689048,16.2609782 189.643782,16.2541421 189.599413,16.2541421 C189.554596,16.2536864 189.509331,16.2600667 189.464066,16.273739 C189.417904,16.2874112 189.375776,16.3101983 189.337681,16.3411887 C189.299139,16.372179 189.26687,16.41274 189.242221,16.4633273 C189.217123,16.513003 189.204575,16.5749838 189.204575,16.6474467 L189.199197,17.7389465 C189.198748,17.8118651 189.210849,17.8724787 189.23505,17.9216987 C189.260148,17.9709187 189.291072,18.011024 189.329614,18.0424701 C189.367261,18.074372 189.409389,18.0967033 189.455102,18.111287 C189.500816,18.1249592 189.546081,18.1322511 189.59045,18.1327068 C189.635267,18.1327068 189.680084,18.1258707 189.725798,18.1126542 C189.771511,18.0985262 189.813639,18.0766507 189.85263,18.0452045 C189.890725,18.0142142 189.922545,17.9741089 189.947642,17.9253446 C189.97274,17.8761246 189.98484,17.815511 189.985289,17.7425925 L189.990667,16.6515483 Z M190.378335,17.8341964 C190.377886,17.9449415 190.353685,18.0429258 190.306627,18.1286052 C190.259121,18.213373 190.19817,18.2844686 190.122877,18.3405248 C190.047136,18.3970367 189.962432,18.4389648 189.867868,18.4676765 C189.7742,18.4959325 189.680532,18.5100604 189.586865,18.5096047 C189.493197,18.509149 189.398633,18.4945652 189.304069,18.4649421 C189.209504,18.4357746 189.123904,18.3924792 189.049059,18.3350559 C188.974215,18.278544 188.913263,18.2069926 188.867102,18.1213133 C188.820492,18.035634 188.797635,17.9376496 188.798083,17.8269046 L188.80391,16.551741 C188.804358,16.4387172 188.829007,16.3393657 188.87741,16.2541421 C188.92626,16.1689185 188.988108,16.0978229 189.063401,16.0403995 C189.139142,15.9825204 189.223846,15.9387693 189.317962,15.9096019 C189.41163,15.8795229 189.505746,15.8649392 189.599413,15.865395 C189.693081,15.8658507 189.786749,15.8813459 189.880417,15.9123363 C189.974084,15.9424152 190.05834,15.9870778 190.133185,16.0454127 C190.208478,16.1032918 190.268981,16.1757546 190.315143,16.2609782 C190.361752,16.3471133 190.385057,16.4460091 190.384609,16.5590329 L190.378335,17.8341964 Z" id="Fill-94" fill="#FFFFFF"></path>
                <path d="M191.502681,18.5077617 L191.514082,16.3825528 L191.161172,16.6425271 L190.913462,16.3459432 C190.948182,16.3209189 190.993786,16.2852362 191.051309,16.241212 C191.108313,16.1967244 191.168427,16.1508466 191.230096,16.1035786 C191.291764,16.0563105 191.351878,16.0118229 191.410955,15.9682622 C191.470033,15.9251648 191.516154,15.8908723 191.550875,15.8653846 L191.971154,15.8672383 L191.957162,18.5096154 L191.502681,18.5077617" id="Fill-95" fill="#FFFFFF"></path>
                <path d="M193.676122,16.638323 C193.676577,16.5676839 193.665657,16.5075267 193.643364,16.4583073 C193.62016,16.4090878 193.591496,16.368983 193.554643,16.3366257 C193.51779,16.3051799 193.477753,16.2823931 193.432255,16.2682653 C193.386303,16.2541375 193.34126,16.2468457 193.295763,16.24639 C193.25072,16.24639 193.204313,16.2541375 193.15745,16.2687211 C193.111043,16.2837604 193.068275,16.3070029 193.030512,16.3379929 C192.992749,16.368983 192.961356,16.4095435 192.937242,16.458763 C192.912673,16.5079825 192.900844,16.5663167 192.900389,16.6346771 L192.899479,16.8279092 C192.898569,16.9464006 192.927233,17.0307117 192.98365,17.0803869 C193.040522,17.1296064 193.108313,17.1546719 193.189298,17.1551277 C193.262549,17.1551277 193.33853,17.1400884 193.418606,17.1090983 C193.498227,17.0776525 193.583762,17.0343576 193.674302,16.9792135 L193.676122,16.638323 Z M194.08105,17.812299 C194.080595,17.9253216 194.058301,18.024672 194.013713,18.1117176 C193.969581,18.1978517 193.909979,18.2712252 193.835818,18.3313824 C193.761657,18.3910838 193.675212,18.4362017 193.576937,18.4658245 C193.479118,18.4959031 193.376293,18.5104866 193.268464,18.5095752 C193.107403,18.5091194 192.966361,18.484054 192.844882,18.4352902 C192.722949,18.3865264 192.61876,18.3213562 192.531404,18.2397794 L192.755252,17.9148396 C192.907669,18.0515605 193.07419,18.1199209 193.254815,18.1208323 C193.294853,18.1212881 193.339895,18.1149078 193.388578,18.1007799 C193.437715,18.0875636 193.483212,18.0652325 193.524615,18.0342425 C193.566018,18.0032524 193.601051,17.9640591 193.628804,17.9148396 C193.656558,17.8665316 193.670207,17.8072859 193.670662,17.7371026 L193.672482,17.3702351 C193.554643,17.4340381 193.452729,17.4796117 193.367194,17.5051329 C193.281658,17.5311099 193.202493,17.5438705 193.129697,17.5434148 C192.933602,17.5425033 192.779821,17.4800675 192.666987,17.356563 C192.554608,17.2326028 192.499101,17.0653477 192.500011,16.8538861 L192.501376,16.5781658 C192.502286,16.4651433 192.52458,16.3644256 192.569167,16.2746456 C192.6133,16.1857771 192.671537,16.1110364 192.744788,16.049512 C192.818039,15.9888991 192.902209,15.9424141 192.998209,15.911424 C193.093754,15.8799782 193.194303,15.8649389 193.299402,15.8653947 C193.407231,15.8658504 193.509146,15.8822569 193.604691,15.9137027 C193.699326,15.9460599 193.782586,15.9920893 193.854017,16.0531579 C193.924993,16.1137708 193.98232,16.1885115 194.024633,16.2778358 C194.066945,16.3680715 194.087419,16.4687892 194.086509,16.5822675 L194.08105,17.812299 Z" id="Fill-96" fill="#FFFFFF"></path>
                <path d="M189.688342,9.53555313 L185.069158,12.1196985 C184.845921,12.2441902 184.567308,12.0882612 184.567308,11.8388587 L184.567308,6.67098713 C184.567308,6.42116546 184.845921,6.26523649 185.069158,6.39014733 L189.688342,8.97387352 C189.911578,9.09878436 189.911578,9.41064229 189.688342,9.53555313" id="Fill-97" fill="#DA3631"></path>
                <path d="M5.74953096,18.5094267 C3.03230116,18.4961801 -0.0140566874,17.1377622 4.88000552e-05,14.1145453 L0.0436475794,4.95644149 C0.0577530668,1.96099973 2.95194262,-0.0140262062 5.92136144,7.50174794e-05 C8.13421321,0.0107577627 9.83884,0.942720455 10.8142558,1.89946712 L9.51355891,4.52528589 C8.4265815,3.40103378 6.8313791,2.97329667 5.99146144,2.96945088 C4.56296026,2.96261392 3.3263792,3.85312756 3.3186853,5.56065756 L3.28107066,13.4564882 C3.27423164,14.8854122 4.81130233,15.6494421 6.04318156,15.6554245 C6.88352666,15.6592703 8.56635406,15.3020393 10.3077406,14.1342016 L11.1057692,17.0223885 C9.42080464,18.0778438 8.04658822,18.5201094 5.74953096,18.5094267" id="Fill-98" fill="#FFFFFF"></path>
                <path d="M20.8141848,4.96709925 C20.8214694,3.39185951 19.5608087,2.81272725 17.9312055,2.80529688 L15.7132655,2.79436985 L15.7149795,8.49477959 L17.9337766,8.50570662 C19.4493975,8.48428965 20.8009012,7.8889854 20.8090427,6.11268842 L20.8141848,4.96709925 Z M21.7624656,18.4921321 L17.3308705,11.2811706 L15.7021243,11.2737403 L15.668701,18.4628477 L12.6923077,18.4484241 L12.7497273,0.00142258931 L18.2817223,0.000111346466 C21.0344362,-0.0151864868 23.9474108,1.54562958 23.9032748,4.81062427 L23.8964187,6.32816933 C23.8599958,8.19013417 22.8662936,10.4485314 20.505233,10.9227643 L25.3846154,18.5096154 L21.7624656,18.4921321 Z" id="Fill-99" fill="#FFFFFF"></path>
                <path d="M35.8509081,4.94152104 C35.8564729,3.82110968 34.8501004,2.86435872 33.1395669,2.8562398 C31.4286052,2.84812088 30.3015195,3.82367355 30.2963827,4.91545502 L30.2552888,13.5971474 C30.249724,14.7158495 31.5916967,15.674737 33.0787821,15.681574 C34.6771636,15.6892656 35.8042494,14.7423429 35.8098142,13.6236407 L35.8509081,4.94152104 Z M33.0376882,18.5095231 C30.2873934,18.4967037 26.9566473,17.0810199 26.9712014,13.9727544 L27.0161478,4.47916975 C27.0307019,1.37133154 30.375146,-0.0127311499 33.1254408,8.8201976e-05 C35.8461994,0.0129075538 39.1491215,1.45636657 39.1345675,4.53642952 L39.089621,14.0300142 C39.0750669,17.1109318 35.7584468,18.5227697 33.0376882,18.5095231 Z" id="Fill-100" fill="#FFFFFF"></path>
                <path d="M46.4708772,18.5094265 C43.7535345,18.4961799 40.7066744,17.137762 40.7212056,14.1145452 L40.764372,4.95644143 C40.7784758,1.96142701 43.6727579,-0.0140262222 46.6426878,7.50014054e-05 C48.8561383,0.0107577465 50.5584309,0.942720431 51.5337338,1.89989439 L50.2331874,4.52528583 C49.1463358,3.40103374 47.5530276,2.97372393 46.7114976,2.96945084 C45.2840165,2.96304119 44.0467237,3.85312751 44.0386033,5.56065749 L44.000993,13.4569154 C43.9945822,14.8854121 45.5310476,15.649442 46.7636391,15.6554243 C47.6043143,15.6592701 49.286947,15.3020391 51.028132,14.1342014 L51.8269231,17.0228157 C50.1417261,18.0782709 48.7685235,18.5201093 46.4708772,18.5094265" id="Fill-101" fill="#FFFFFF"></path>
                <g id="Group-105" transform="translate(53.413462, 0.000000)">
                    <mask id="mask-2" fill="white">
                        <use xlink:href="#path-1"></use>
                    </mask>
                    <g id="Clip-103"></g>
                    <path d="M12.2664131,14.4385096 C12.2515448,17.5582212 9.01661018,18.9874038 6.28805013,18.9744231 C3.55906526,18.9614423 0.364912516,17.5006731 0.379780895,14.3809615 L0.443927333,0.486778846 L3.7289896,0.502355769 L3.66569278,14.0841346 C3.65889581,15.5873077 5.18736523,16.1909135 6.38448219,16.1965385 C7.58202396,16.2025962 9.05994089,15.6137019 9.06673786,14.1105288 L9.13003468,0.528317308 L12.3305596,0.543894231 L12.2664131,14.4385096" id="Fill-102" fill="#FFFFFF" mask="url(#mask-2)"></path>
                    <path d="M19.5383252,19.0388942 C17.0888659,19.0267788 15.4788328,18.2816827 13.9269987,16.7997115 L15.8853767,14.4272596 C16.9643963,15.7071635 18.5774031,16.1991346 19.4971185,16.2038942 C21.1113997,16.21125 22.1449645,15.5063942 22.3735128,14.1745673 C22.6882976,12.1357212 19.7426592,11.1002885 18.2995768,10.3551923 C16.2167292,9.26826923 14.5531699,7.72875 14.5650646,5.14903846 C14.5782338,2.37028846 16.7579382,0.281682692 20.1551505,0.298125 C22.6054595,0.309807692 24.1309552,1.42355769 25.0166858,2.53384615 L23.2239841,4.87774038 C22.310216,3.796875 21.310636,3.25254808 20.1976316,3.24735577 C18.6653389,3.24 17.7991496,4.14346154 17.8501269,5.13692308 C17.9248936,7.00831731 20.9546445,8.07230769 22.3148889,8.84423077 C24.6199125,10.1873077 26.4733622,12.4935577 25.4861018,15.3523558 C24.6122659,17.8727885 22.1564344,19.0510096 19.5383252,19.0388942" id="Fill-104" fill="#FFFFFF" mask="url(#mask-2)"></path>
                </g>
                <path d="M89.8347585,18.5094267 C87.1188024,18.496181 84.0720596,17.1378572 84.0865902,14.1135678 L84.1297549,4.9569528 C84.1442856,1.96086392 87.0384563,-0.0140252349 90.0065625,7.50122461e-05 C92.219073,0.0107570177 93.9238643,0.94350973 94.898275,1.90019013 L93.5986334,4.52539978 C92.512251,3.40079825 90.9168672,2.97309076 90.0766516,2.96924523 C88.6483707,2.96283603 87.411553,3.85286072 87.4034329,5.56027247 L87.3662514,13.4555563 C87.3594135,14.8843813 88.8958198,15.6483584 90.1287912,15.6543403 C90.9698614,15.6581858 92.6511472,15.3009796 94.3926926,14.1332227 L95.1923077,17.0212097 C93.5076029,18.0778737 92.1314615,18.5201087 89.8347585,18.5094267" id="Fill-106" fill="#FFFFFF"></path>
                <polyline id="Fill-107" fill="#FFFFFF" points="96.7788462 19.0231241 96.8622933 0.528846154 99.9519231 0.544183556 99.868476 19.0384615 96.7788462 19.0231241"></polyline>
                <polyline id="Fill-108" fill="#FFFFFF" points="113.220274 3.59076449 109.457206 3.57197167 109.386782 19.0384615 106.172434 19.022728 106.242439 3.55623815 102.067308 3.53569716 102.080722 0.528846154 113.701923 0.586098695 113.220274 3.59076449"></polyline>
                <path d="M121.884249,12.154959 L121.852617,19.0384615 L118.603111,19.0231444 L118.634743,12.1392043 L113.701923,0.528846154 L117.230984,0.545913774 L120.054745,7.64429329 C120.22188,8.10336851 120.304378,8.7059868 120.304378,8.7059868 C120.304378,8.7059868 120.389442,8.07536011 120.559141,7.61672252 L123.449585,0.576110333 L126.923077,0.593177953 L121.884249,12.154959" id="Fill-109" fill="#FFFFFF"></path>
                <polyline id="Fill-110" fill="#FFFFFF" points="145.346665 19.0257945 142.104714 19.0384615 142.170525 10.9669309 135.462522 10.9346081 135.42467 18.9781839 132.211538 18.9908509 132.297566 0.528846154 135.510697 0.544133971 135.475856 7.98624335 142.18429 8.01812937 142.218701 0.576893579 145.432692 0.592181396 145.346665 19.0257945"></polyline>
                <path d="M154.138938,5.98669748 C153.943947,5.23981979 153.894016,4.17878969 153.894016,4.17878969 C153.894016,4.17878969 153.831601,5.23938226 153.601314,5.98407225 L152.254456,10.7379246 L155.44103,10.7532385 L154.138938,5.98669748 Z M157.715494,19.0213975 L156.273508,13.7670015 L151.39486,13.7433744 L149.903803,18.9837693 L146.490385,18.9667053 L152.13221,0.528846154 L155.827999,0.546785219 L161.298077,19.0384615 L157.715494,19.0213975 Z" id="Fill-111" fill="#FFFFFF"></path>
                <polyline id="Fill-112" fill="#FFFFFF" points="172.727471 19.0384615 162.884615 18.9903414 162.969234 0.528846154 166.18517 0.54459455 166.114091 15.9959588 173.461538 16.0318302 172.727471 19.0384615"></polyline>
                <polyline id="Fill-113" fill="#FFFFFF" points="184.890509 19.0384615 175.048077 18.9903403 175.132696 0.528846154 178.348209 0.544157457 178.277552 15.9958869 185.625 16.0321966 184.890509 19.0384615"></polyline>
                <path d="M210.061459,14.5842804 L210.056202,15.8189632 C210.054584,16.2054538 210.031937,16.556295 209.988666,16.8710521 C209.945395,17.1853746 209.869367,17.4570917 209.758964,17.6862037 C209.64937,17.9148808 209.49691,18.098779 209.301987,18.2370287 C209.106659,18.3752784 208.855928,18.4661406 208.550602,18.5096154 L208.365385,17.7531548 C208.545749,17.6909859 208.690526,17.6109923 208.799716,17.5123047 C208.908905,17.4144865 208.994234,17.2884097 209.055704,17.1362481 C209.117173,16.983217 209.157614,16.8010578 209.177025,16.5902053 C209.197246,16.378918 209.207356,16.1289382 209.208973,15.8411354 L209.218275,13.75 L212.067308,13.7647814 L212.047087,18.4126667 L211.174382,18.408754 L211.191367,14.5894974 L210.061459,14.5842804" id="Fill-114" fill="#FFFFFF"></path>
                <polyline id="Fill-115" fill="#FFFFFF" points="213.146801 13.75 216.298077 13.7655311 216.294657 14.6121977 214.052173 14.6011041 214.047471 15.6891683 215.964226 15.698487 215.959952 16.5460411 214.043196 16.5362787 214.038066 17.6518551 216.280123 17.6629488 216.276704 18.5096154 213.125 18.494528 213.146801 13.75"></polyline>
                <polyline id="Fill-116" fill="#FFFFFF" points="218.847374 14.6077524 218.830286 18.5096154 217.965309 18.5051734 217.982397 14.6037546 216.826923 14.5975358 216.830585 13.75 220 13.7664354 219.996338 14.6139712 218.847374 14.6077524"></polyline>
                <polyline id="Fill-117" fill="#FFFFFF" points="192.698213 0.528846154 198.846154 0.563505069 198.762762 19.0384615 195.583399 19.0226676 195.653381 3.55996568 191.971154 3.53759093 192.698213 0.528846154"></polyline>
                <path d="M207.435563,15.576816 C207.158467,15.645218 206.859393,15.6830757 206.540064,15.6817851 C205.053742,15.6749019 203.710924,14.7164135 203.716526,13.5970299 L203.757896,4.91556878 C203.762637,3.82371802 204.890414,2.8484518 206.600827,2.85662563 C208.31167,2.86436925 209.317491,3.82199722 209.31232,4.94181105 L209.277414,12.267708 L212.559475,12.2831953 L212.596105,4.53699168 C212.610757,1.45675078 209.30758,0.0129954097 206.586175,8.93724137e-05 C203.83719,-0.0128166649 200.493072,1.37157094 200.477989,4.47934471 L200.43274,13.9730257 C200.418088,17.0807995 203.749277,18.4965918 206.498693,18.5094979 C206.800354,18.5112187 207.110202,18.4940106 207.421773,18.4600247 L207.435563,15.576816" id="Fill-118" fill="#FFFFFF"></path>
            </g>
        </g>
    </g>
</svg>