<svg xmlns="http://www.w3.org/2000/svg" xmlns:xlink="http://www.w3.org/1999/xlink" width="30" height="30" viewBox="0 0 30 30"><defs><path id="q0kna" d="M974 4934.58v26.84a.58.58 0 0 1-1.03.38 22.78 22.78 0 0 0-17.31-7.97h-.91c-.96 0-1.75-.78-1.75-1.75v-8.16c0-.97.79-1.75 1.75-1.75h.91c6.67 0 12.98-2.9 17.31-7.97a.58.58 0 0 1 1.03.38zm-1.17 1.5a23.94 23.94 0 0 1-17.17 7.25h-.91a.59.59 0 0 0-.58.59v8.16c0 .32.26.59.58.59h.91c6.5 0 12.67 2.62 17.17 7.24z"/><path id="q0knb" d="M954 4943.56v7.88c0 .3-.26.56-.57.56h-4.57a2.84 2.84 0 0 1-2.86-2.81v-3.38a2.84 2.84 0 0 1 2.86-2.81h4.57c.31 0 .57.25.57.56zm-1.14.56h-4a1.7 1.7 0 0 0-1.72 1.7v3.37c0 .93.77 1.69 1.72 1.69h4z"/><path id="q0knc" d="M957.7 4959.4l-.4-.45c-.25-.3-.49-.65-.7-1.02a4.78 4.78 0 0 1-.47-3.6l.14-.53c.08-.3-.1-.6-.41-.67a.57.57 0 0 0-.7.4l-.13.53a5.87 5.87 0 0 0 .57 4.42 8.55 8.55 0 0 0 1.19 1.58c.14.25.05.46 0 .55a.56.56 0 0 1-.5.28h-1.6a1.7 1.7 0 0 1-1.68-1.32l-1.89-7.15a.57.57 0 0 0-.7-.4.55.55 0 0 0-.4.67l1.88 7.13a2.82 2.82 0 0 0 2.8 2.18h1.59a1.7 1.7 0 0 0 1.5-.85c.3-.53.3-1.15-.1-1.76z"/><path id="q0knd" d="M948.5 4947a.5.5 0 0 0-.5.5v1a.5.5 0 0 0 1 0v-1a.5.5 0 0 0-.5-.5z"/><path id="q0kne" d="M950.5 4947a.5.5 0 0 0-.5.5v1a.5.5 0 0 0 1 0v-1a.5.5 0 0 0-.5-.5z"/></defs><g><g transform="translate(-945 -4933)"><g><use fill="#fff" xlink:href="#q0kna"/><use fill="#fff" fill-opacity="0" stroke="#fff" stroke-miterlimit="50" stroke-width=".4" xlink:href="#q0kna"/></g><g><use fill="#fff" xlink:href="#q0knb"/><use fill="#fff" fill-opacity="0" stroke="#fff" stroke-miterlimit="50" stroke-width=".4" xlink:href="#q0knb"/></g><g><use fill="#fff" xlink:href="#q0knc"/><use fill="#fff" fill-opacity="0" stroke="#fff" stroke-miterlimit="50" stroke-width=".4" xlink:href="#q0knc"/></g><g><use fill="#fff" xlink:href="#q0knd"/></g><g><use fill="#fff" xlink:href="#q0kne"/></g></g></g></svg>