<svg xmlns="http://www.w3.org/2000/svg" xmlns:xlink="http://www.w3.org/1999/xlink" width="20" height="47" viewBox="0 0 20 47"><defs><path id="85rfa" d="M969.42 1834.32v13.62a6.35 6.35 0 0 1-4.57 6.04l-.09 1.24h.8a.63.63 0 0 1 .62.68l-.17 2.26a.63.63 0 0 1-.62.58h-.88l-.12 1.69a.63.63 0 0 1-.63.58h-.27c.16.11.26.3.26.5v11.9c0 .34-.28.62-.63.62h-6.8a.63.63 0 0 1-.62-.63v-11.88c0-.21.1-.4.26-.51h-.28a.63.63 0 0 1-.62-.58l-.12-1.69h-.88a.63.63 0 0 1-.63-.58l-.16-2.26a.63.63 0 0 1 .62-.68h.8l-.1-1.24a6.35 6.35 0 0 1-4.56-6.04v-.02-.01-13.57-.02-.03a6.35 6.35 0 0 1 6.34-6.29h6.7a6.35 6.35 0 0 1 6.35 6.3v.02zm-14.57 23.17l-.08-1.01h-.2l.07 1zm10.03-1.01h-.2l-.08 1h.2zm-2.38 16.3v-10.64h-.98a.63.63 0 0 1-.16-1.23v-3.3h-1.01v1.07a.63.63 0 1 1-1.25 0v-1.07h-1.02v3.28h1.42a.63.63 0 1 1 0 1.25h-2.55v10.64zm1.08-18.57l-.5.02h-6.71c-.17 0-.33 0-.5-.02l.4 5.55h.56v-2.78c0-.34.28-.62.63-.62h4.53c.35 0 .63.28.63.62v2.78h.56l.27-3.72.01-.23zm4.54-5.67h-5.5a.63.63 0 1 1 0-1.25h5.54v-2.15h-5.54a.63.63 0 1 1 0-1.25h5.54v-2.15h-5.54a.63.63 0 1 1 0-1.25h5.54v-2.15h-5.54a.63.63 0 1 1 0-1.25h5.54v-2.15h-.5a.63.63 0 1 1 0-1.25h.46a5.1 5.1 0 0 0-4.42-4.4v1.63a.63.63 0 1 1-1.25 0v-1.67h-2.1v1.67a.63.63 0 1 1-1.25 0v-1.67H957v1.67a.63.63 0 1 1-1.26 0v-1.63a5.1 5.1 0 0 0-4.41 4.4h5.5a.63.63 0 1 1 0 1.25h-5.55v2.15h5.54a.63.63 0 1 1 0 1.25h-5.54v2.15h5.54a.63.63 0 1 1 0 1.25h-5.54v2.15h5.54a.63.63 0 1 1 0 1.25h-5.54v2.15h5.54a.63.63 0 1 1 0 1.25h-5.5a5.1 5.1 0 0 0 4.42 4.4v-1.62a.63.63 0 1 1 1.26 0v1.66h2.1v-1.66a.63.63 0 1 1 1.25 0v1.66h2.1v-1.66a.63.63 0 1 1 1.25 0v1.62a5.1 5.1 0 0 0 4.42-4.4zm-6.13-14.22c0-.35.29-.63.63-.63h3.14a.63.63 0 1 1 0 1.25h-3.14a.63.63 0 0 1-.63-.62zm-.5 6.8a1.76 1.76 0 1 1-3.53 0 1.76 1.76 0 0 1 3.52 0zm-1.26 0a.5.5 0 1 0-1.01 0 .5.5 0 0 0 1.01 0zm1.93 22.66v7.36c0 .34-.28.62-.62.62h-3.63a.63.63 0 0 1-.63-.62v-7.36c0-.34.28-.62.63-.62h3.63c.34 0 .62.28.62.62zm-1.25.63h-2.37v6.1h2.37z"/></defs><g><g transform="translate(-950 -1828)"><use fill="#fff" xlink:href="#85rfa"/></g></g></svg>