<svg xmlns="http://www.w3.org/2000/svg" xmlns:xlink="http://www.w3.org/1999/xlink" width="18" height="20" viewBox="0 0 18 20"><defs><path id="9amia" d="M1219.75 1287c-.688 0-1.25.563-1.25 1.25v17.5c0 .688.563 1.25 1.25 1.25h12.5c.688 0 1.25-.563 1.25-1.25V1292l-5-5z"/><path id="9amib" d="M1229.75 1292h3.75l-5-5v3.75c0 .688.563 1.25 1.25 1.25z"/><path id="9amic" d="M1233.503 1295.333l-3.333-3.333h3.333z"/><path id="9amid" d="M1231 1303.045a.627.627 0 0 1-.625.625h-13.75a.627.627 0 0 1-.625-.625v-6.25c0-.344.281-.625.625-.625h13.75c.344 0 .625.281.625.625z"/><path id="9amie" d="M1219.205 1299.277v1.18h.849c.34 0 .61-.28.61-.574a.608.608 0 0 0-.61-.606zm-.675-.27c0-.156.133-.327.348-.327h1.182c.665 0 1.264.412 1.264 1.203 0 .749-.599 1.166-1.264 1.166h-.855v.626c0 .209-.143.326-.327.326-.17 0-.348-.117-.348-.326v-2.668z"/><path id="9amif" d="M1222.646 1299.298v2.123h.845c1.374 0 1.435-2.123 0-2.123h-.845zm-.323 2.7c-.169 0-.353-.085-.353-.293v-2.691c0-.17.184-.294.353-.294h1.172c2.339 0 2.287 3.279.046 3.279h-1.218z"/><path id="9amig" d="M1226.62 1299.337v.753h1.304c.185 0 .369.17.369.336 0 .157-.184.285-.369.285h-1.305v.994c0 .166-.127.294-.306.294-.225 0-.363-.128-.363-.294v-2.691c0-.17.138-.294.363-.294h1.796c.226 0 .359.124.359.294 0 .152-.133.322-.359.322h-1.49z"/><path id="9amih" d="M1230.375 1304.087H1218.5v.416h11.875c.344 0 .625-.187.625-.416v-.417c0 .23-.281.417-.625.417z"/></defs><g><g transform="translate(-1216 -1287)"><g><use fill="#e2e5e7" xlink:href="#9amia"/></g><g><use fill="#b0b7bd" xlink:href="#9amib"/></g><g><use fill="#cad1d8" xlink:href="#9amic"/></g><g><use fill="#f53a3b" xlink:href="#9amid"/></g><g><g><use fill="#fff" xlink:href="#9amie"/></g><g><use fill="#fff" xlink:href="#9amif"/></g><g><use fill="#fff" xlink:href="#9amig"/></g></g><g><use fill="#cad1d8" xlink:href="#9amih"/></g></g></g></svg>