<svg xmlns="http://www.w3.org/2000/svg" xmlns:xlink="http://www.w3.org/1999/xlink" width="93" height="105" viewBox="0 0 93 105"><defs><path id="wdtja" d="M952 1497.5c0-1.38 4.92-2.5 11-2.5s11 1.12 11 2.5-4.92 2.5-11 2.5-11-1.12-11-2.5z"/><path id="wdtjb" d="M982.33 1462.66c0 2.83-.58 5.53-1.72 8.03-4.92 10.76-14.35 22.12-17.12 25.34a1.1 1.1 0 0 1-1.66 0c-2.77-3.23-12.2-14.58-17.11-25.34a19.69 19.69 0 0 1 17.94-27.69 19.69 19.69 0 0 1 19.67 19.66zm-9.45 0a10.23 10.23 0 0 0-20.43 0 10.23 10.23 0 0 0 20.43 0z"/></defs><g><g transform="translate(-936 -1436)"><g opacity=".1"><use xlink:href="#wdtja"/></g><g><use fill="red" xlink:href="#wdtjb"/></g></g></g></svg>