<svg width="76" height="51" viewBox="0 0 76 51" fill="none" xmlns="http://www.w3.org/2000/svg">
<path fill-rule="evenodd" clip-rule="evenodd" d="M0 6.90912C1.27783 6.94708 2.55361 6.78083 3.77907 6.41664C4.66937 6.12531 5.49174 5.6573 6.19703 5.04061C6.79359 4.45932 7.28365 3.77789 7.64493 3.02727C8.04097 2.23665 8.3797 1.41858 8.65847 0.579381H13.9867V51H6.12466V12.5291H0V6.90912ZM39.3104 13.0361C39.4875 11.4267 39.0928 9.80639 38.1955 8.45896C37.8127 8.05658 37.3489 7.74006 36.8347 7.53032C36.3206 7.32058 35.7677 7.22239 35.2128 7.24226C34.6639 7.21685 34.1156 7.30254 33.6006 7.49418C33.0856 7.68582 32.6145 7.97948 32.2157 8.35757C31.3622 9.45048 30.963 10.8305 31.1008 12.2105V17.6132H23.6152V12.674C23.3901 9.27647 24.4553 5.9192 26.5978 3.2735C28.5959 1.09117 31.54 0 35.43 0C39.32 0 42.2592 1.09117 44.2477 3.2735C46.3902 5.9192 47.4554 9.27647 47.2303 12.674C47.2687 15.1135 46.8767 17.5406 46.072 19.8438C45.3474 21.8864 44.3749 23.8322 43.1762 25.6376C42.0339 27.3509 40.7608 28.9731 39.3683 30.4899C37.9879 31.9867 36.7138 33.4061 35.5458 34.7484C34.4689 35.9706 33.5 37.2839 32.65 38.6737C31.9019 39.8735 31.5009 41.2573 31.4917 42.6714C31.485 43.0301 31.5092 43.3887 31.5641 43.7433H46.5354V50.9855H23.6152V44.8006C23.5745 42.5874 23.9681 40.3877 24.7736 38.326C25.5131 36.4898 26.4864 34.7566 27.6693 33.1696C28.8291 31.6371 30.0917 30.1853 31.4483 28.8242C32.7954 27.4542 34.0574 26.003 35.2273 24.4788C36.4031 22.9288 37.3762 21.2349 38.1231 19.4382C38.9393 17.3998 39.3334 15.2168 39.2814 13.0216L39.3104 13.0361ZM66.3571 22.9725H76V28.5924H66.3571V38.4564H60.7392V28.5924H51.0963V22.9725H60.7392V13.2533H66.3571V22.9725Z" fill="#009FE3"/>
</svg>
