<svg xmlns="http://www.w3.org/2000/svg" xmlns:xlink="http://www.w3.org/1999/xlink" width="1920" height="74" viewBox="0 0 1920 74"><defs><path id="3okya" d="M-2 74V0h1924v74h-8a5 5 0 0 0-10 0h-16a5 5 0 0 0-10 0h-16a5 5 0 0 0-10 0h-16a5 5 0 0 0-10 0h-16a5 5 0 0 0-10 0h-16a5 5 0 0 0-10 0h-16a5 5 0 0 0-10 0h-16a5 5 0 0 0-10 0h-16a5 5 0 0 0-10 0h-16a5 5 0 0 0-10 0h-16a5 5 0 0 0-10 0h-16a5 5 0 0 0-10 0h-16a5 5 0 0 0-10 0h-16a5 5 0 0 0-10 0h-16a5 5 0 0 0-10 0h-16a5 5 0 0 0-10 0h-16a5 5 0 0 0-10 0h-16a5 5 0 0 0-10 0h-16a5 5 0 0 0-10 0h-16a5 5 0 0 0-10 0h-16a5 5 0 0 0-10 0h-16a5 5 0 0 0-10 0h-16a5 5 0 0 0-10 0h-16a5 5 0 0 0-10 0h-16a5 5 0 0 0-10 0h-16a5 5 0 0 0-10 0h-16a5 5 0 0 0-10 0h-16a5 5 0 0 0-10 0h-16a5 5 0 0 0-10 0h-16a5 5 0 0 0-10 0h-16a5 5 0 0 0-10 0h-16a5 5 0 0 0-10 0h-16a5 5 0 0 0-10 0h-16a5 5 0 0 0-10 0h-16a5 5 0 0 0-10 0h-16a5 5 0 0 0-10 0h-16a5 5 0 0 0-10 0h-16a5 5 0 0 0-10 0h-16a5 5 0 0 0-10 0h-16a5 5 0 0 0-10 0h-16a5 5 0 0 0-10 0h-16a5 5 0 0 0-10 0h-16a5 5 0 0 0-10 0h-16a5 5 0 0 0-10 0h-16a5 5 0 0 0-10 0h-16a5 5 0 0 0-10 0h-16a5 5 0 0 0-10 0h-16a5 5 0 0 0-10 0h-16a5 5 0 0 0-10 0h-16a5 5 0 0 0-10 0h-16a5 5 0 0 0-10 0h-16a5 5 0 0 0-10 0h-16a5 5 0 0 0-10 0h-16a5 5 0 0 0-10 0h-16a5 5 0 0 0-10 0h-16a5 5 0 0 0-10 0h-16a5 5 0 0 0-10 0h-16a5 5 0 0 0-10 0h-16a5 5 0 0 0-10 0h-16a5 5 0 0 0-10 0h-16a5 5 0 0 0-10 0h-16a5 5 0 0 0-10 0h-16a5 5 0 0 0-10 0h-16a5 5 0 0 0-10 0h-16a5 5 0 0 0-10 0h-16a5 5 0 0 0-10 0h-16a5 5 0 0 0-10 0h-16a5 5 0 0 0-10 0h-16a5 5 0 0 0-10 0h-16a5 5 0 0 0-10 0H94a5 5 0 0 0-10 0H68a5 5 0 0 0-10 0H42a5 5 0 0 0-10 0H16a5 5 0 0 0-10 0z"/></defs><g><g opacity=".8"><use fill="#d5faff" xlink:href="#3okya"/></g></g></svg>