<svg xmlns="http://www.w3.org/2000/svg" xmlns:xlink="http://www.w3.org/1999/xlink" width="30" height="24" viewBox="0 0 30 24"><defs><path id="mxfxa" d="M948.4 3233.9h4.77l.11-.5c.47-2 2.23-3.39 4.27-3.39h4.25c2.04 0 3.8 1.39 4.26 3.38l.11.5h4.77c1.88 0 3.41 1.53 3.41 3.41v12.95c0 1.98-1.6 3.58-3.58 3.58h-22.19a3.58 3.58 0 0 1-3.58-3.58v-12.95c0-1.88 1.53-3.4 3.4-3.4zm0 1.46c-1.06 0-1.93.87-1.93 1.94v12.95c0 1.17.94 2.11 2.11 2.11h22.18c1.17 0 2.12-.94 2.12-2.11v-12.95c0-1.07-.87-1.94-1.94-1.94h-5.35a.74.74 0 0 1-.72-.57l-.24-1.07a2.9 2.9 0 0 0-2.83-2.24h-4.25a2.9 2.9 0 0 0-2.83 2.24l-.25 1.07a.73.73 0 0 1-.71.57z"/><path id="mxfxb" d="M948.98 3238.49a.98.98 0 1 1 1.96 0 .98.98 0 0 1-1.96 0z"/><path id="mxfxc" d="M953.51 3243.9a6.17 6.17 0 1 1 12.34.02 6.17 6.17 0 0 1-12.34-.02zm1.47 0a4.7 4.7 0 1 0 9.4-.01 4.7 4.7 0 0 0-9.4.01z"/></defs><g><g transform="translate(-945 -3230)"><g><use fill="#fff" xlink:href="#mxfxa"/></g><g><use fill="#fff" xlink:href="#mxfxb"/></g><g><use fill="#fff" xlink:href="#mxfxc"/></g></g></g></svg>