<svg xmlns="http://www.w3.org/2000/svg" xmlns:xlink="http://www.w3.org/1999/xlink" preserveAspectRatio="xMidYMid" width="11.907" height="11.906" viewBox="0 0 11.907 11.906">
  <defs>
    <style>
      .close-modal-svg {
        fill: #fff;
        fill-rule: evenodd;
      }
    </style>
  </defs>
  <path d="M7.351,5.937 L11.594,10.180 C11.984,10.570 11.984,11.203 11.594,11.594 C11.203,11.984 10.570,11.984 10.180,11.594 L5.937,7.351 L1.694,11.594 C1.304,11.984 0.671,11.984 0.280,11.594 C-0.110,11.203 -0.110,10.570 0.280,10.180 L4.523,5.937 L0.280,1.694 C-0.110,1.304 -0.110,0.671 0.280,0.280 C0.671,-0.110 1.304,-0.110 1.694,0.280 L5.937,4.523 L10.180,0.280 C10.570,-0.110 11.203,-0.110 11.594,0.280 C11.984,0.671 11.984,1.304 11.594,1.694 L7.351,5.937 Z" class="close-modal-svg"/>
</svg>
