<svg xmlns="http://www.w3.org/2000/svg" xmlns:xlink="http://www.w3.org/1999/xlink" width="110" height="19" viewBox="0 0 110 19"><defs><path id="4696a" d="M1437.17 5635.32v-5.25h9.19v5.25z"/><path id="4696b" d="M1400.38 5648.9v-18.82h5.07v18.82z"/><path id="4696c" d="M1408.99 5648.91v-18.82h5.07v18.82z"/><path id="4696d" d="M1437.2 5648.92v-5.35h9.19v5.35z"/><path id="4696e" d="M1446.34 5630.15v5.17l-6.42 13.55-2.7.02-.02-5.3 6.47-13.4z"/><path id="4696f" d="M1397.39 5635.06v-4.97h3v4.97z"/><path id="4696g" d="M1405.44 5635.05v-4.97h3v4.97z"/><path id="4696h" d="M1463.33 5630.1l-16.3 18.83 16.2.04z"/><path id="4696i" d="M1443.67 5630.05l2.68.01v5.26h-5.17z"/><path id="4696j" d="M1442.38 5643.64h-5.19v5.25h2.72z"/><path id="4696k" d="M1431.55 5648.91v-18.84h5.07v18.84z"/><path id="4696l" d="M1371.2 5648.97v-18.9h5.07v18.9z"/><path id="4696m" d="M1371.19 5636.25a6.23 6.23 0 1 1 12.46 0 6.23 6.23 0 0 1-12.46 0z"/><path id="4696n" d="M1376.35 5630.14a6.23 6.23 0 0 0-5.14 5.57v1.12a6.23 6.23 0 0 0 5.14 5.58v-12.27z"/><path id="4696o" d="M1384.33 5648.96v-18.9h5.07v18.9z"/><path id="4696p" d="M1384.32 5636.26a6.23 6.23 0 1 1 12.46 0 6.23 6.23 0 0 1-12.46 0z"/><path id="4696q" d="M1389.47 5630.09a6.23 6.23 0 0 0-5.14 5.57v1.12a6.23 6.23 0 0 0 5.14 5.58v-12.27z"/><path id="4696r" d="M1431.01 5630.04l-16.3 18.87 16.2.04z"/><path id="4696s" d="M1354.03 5648.94l8.29-18.85 8.13 18.85z"/><path id="4696t" d="M1414.61 5630.07l16.3 18.87-16.2.04z"/><path id="4696u" d="M1446.93 5630.06l16.3 18.83-16.2.04z"/></defs><g><g transform="translate(-1354 -5630)"><g><use fill="#fff" xlink:href="#4696a"/></g><g><use fill="#fff" xlink:href="#4696b"/></g><g><use fill="#fff" xlink:href="#4696c"/></g><g><use fill="#fff" xlink:href="#4696d"/></g><g><use fill="#fff" xlink:href="#4696e"/></g><g><use fill="#d40054" xlink:href="#4696f"/></g><g><use fill="#5393d3" xlink:href="#4696g"/></g><g><use fill="#5393d3" xlink:href="#4696h"/></g><g><use fill="#d30054" xlink:href="#4696i"/></g><g><use fill="#d30054" xlink:href="#4696j"/></g><g><use fill="#fff" xlink:href="#4696k"/></g><g><use fill="#fff" xlink:href="#4696l"/></g><g><use fill="#fff" xlink:href="#4696m"/></g><g><use fill="#b3c717" xlink:href="#4696n"/></g><g><use fill="#fff" xlink:href="#4696o"/></g><g><use fill="#fff" xlink:href="#4696p"/></g><g><use fill="#b3c717" xlink:href="#4696q"/></g><g><use fill="#5393d3" xlink:href="#4696r"/></g><g><use fill="#fff" xlink:href="#4696s"/></g><g><use fill="#fff" xlink:href="#4696t"/></g><g><use fill="#fff" xlink:href="#4696u"/></g></g></g></svg>