<svg width="138" height="81" viewBox="0 0 138 81" fill="none" xmlns="http://www.w3.org/2000/svg">
<path fill-rule="evenodd" clip-rule="evenodd" d="M129.673 0H8.32664C3.7372 0 0 3.88692 0 8.66639V72.1354C0 76.9149 3.7372 80.773 8.32664 80.773H129.673C134.28 80.773 138 76.8861 138 72.1354V8.66639C138 3.88692 134.263 0 129.673 0Z" fill="white"/>
<path fill-rule="evenodd" clip-rule="evenodd" d="M24.4789 49.0096C22.0374 49.0096 20.0565 41.8634 20.0565 33.0473C20.0565 24.2312 22.0374 17.0908 24.4789 17.0908C24.574 17.0906 24.6688 17.1022 24.7611 17.1253C24.2073 15.2545 23.4565 13.4477 22.5211 11.7355C26.0069 16.0879 28.116 21.3807 28.5789 26.9376C28.8092 28.9698 28.9227 31.0136 28.9186 33.0588C28.9186 41.8749 26.932 49.0211 24.4904 49.0211L24.4789 49.0096ZM39.6408 59.6741H33.3065C33.9918 55.7699 38.1666 54.0367 40.0554 46.522C42.5545 36.5945 37.6484 30.2199 34.2106 27.1277C34.2106 27.1277 34.5101 38.1262 31.0262 44.7944C32.0969 40.2412 32.6227 35.5768 32.5925 30.8994C32.5925 16.4228 27.9858 4.68143 22.2792 4.68143C16.5726 4.68143 11.9544 16.4228 11.9544 30.8994C11.9544 45.376 16.5611 57.1232 22.2735 57.1232C25.7285 57.1232 28.7632 52.8332 30.6346 46.2455C31.3727 45.8846 32.1856 45.7031 33.0071 45.7158C35.3853 45.7158 37.2914 48.6871 33.5254 53.6796C31.5502 56.5588 30.9053 58.3267 30.7556 59.6741H23.9031C23.7625 59.6533 23.6191 59.6642 23.4832 59.7058C23.3473 59.7474 23.2224 59.8188 23.1176 59.9148C23.0128 60.0108 22.9307 60.1289 22.8774 60.2606C22.824 60.3923 22.8006 60.5342 22.809 60.6761V66.302C22.0416 66.3531 21.3222 66.6937 20.7962 67.2549C20.2703 67.8161 19.9771 68.5561 19.9759 69.3252V69.5152H40.7061V60.6761C40.7148 60.5367 40.6926 60.3972 40.6412 60.2673C40.5898 60.1375 40.5105 60.0206 40.4087 59.9249C40.307 59.8293 40.1855 59.7572 40.0527 59.7138C39.92 59.6705 39.7794 59.6569 39.6408 59.6741Z" fill="#E30613"/>
<path fill-rule="evenodd" clip-rule="evenodd" d="M96.5741 32.5809V28.1239L97.8927 26.4309C98.2512 26.7368 98.5396 27.1163 98.7383 27.5435C98.937 27.9708 99.0414 28.4358 99.0444 28.907V38.0053H102.275V28.671C102.273 27.7651 102.071 26.8708 101.683 26.0524C101.295 25.2339 100.73 24.5117 100.029 23.9376L99.9139 23.8454L100.3 23.356C101.569 21.7307 102.26 19.7287 102.263 17.6667V11.5167H99.0444V18.1043C99.0409 19.4372 98.5954 20.7313 97.7776 21.7839L96.5798 23.3041V11.5167H93.3494V38.0053H96.5683L96.5741 32.5809Z" fill="#454193"/>
<path fill-rule="evenodd" clip-rule="evenodd" d="M124.151 14.7529V11.5167H117.54C117.282 11.5182 117.034 11.622 116.852 11.8054C116.67 11.9889 116.567 12.237 116.567 12.4956V37.0264C116.567 37.285 116.67 37.5331 116.852 37.7166C117.034 37.9 117.282 38.0038 117.54 38.0053H124.151V34.7691H119.775V23.1256H123.938V19.8952H119.775V14.7529H124.151Z" fill="#454193"/>
<path fill-rule="evenodd" clip-rule="evenodd" d="M89.284 50.9558L86.7963 54.5606V43.0322H83.5659V69.5151H86.7963V59.674L89.284 56.1211V69.5151H92.5202V43.0322H89.284V50.9558Z" fill="#454193"/>
<path fill-rule="evenodd" clip-rule="evenodd" d="M64.3559 56.4323H61.8798V48.0941C61.8798 47.1152 62.0986 46.263 63.1812 46.263H64.3329V56.4323H64.3559ZM66.6189 43.021H63.1639C60.5093 43.021 58.8163 44.9731 58.6436 48.2381C58.6436 48.5087 58.6436 48.7563 58.6436 48.9924V69.5096H61.8798V59.6743H64.3559V69.5096H67.5979V44.0114C67.5979 43.8829 67.5725 43.7556 67.5233 43.6368C67.4742 43.518 67.402 43.4101 67.3111 43.3192C67.2202 43.2283 67.1123 43.1562 66.9936 43.107C66.8748 43.0578 66.7475 43.0325 66.6189 43.0325V43.021Z" fill="#454193"/>
<path fill-rule="evenodd" clip-rule="evenodd" d="M101.031 64.7992C100.997 65.4096 100.778 66.4288 99.6894 66.4288C98.601 66.4288 98.388 65.4096 98.3534 64.805C98.3534 64.5631 98.3534 47.9789 98.3534 47.7486C98.388 47.1382 98.601 46.1132 99.6894 46.1132C100.778 46.1132 100.997 47.1382 101.031 47.7428C101.031 48.0193 101.031 64.3616 101.031 64.7992ZM99.6951 42.8309C97.0405 42.8309 95.3475 44.7773 95.169 48.0423C95.169 48.3129 95.169 48.5605 95.169 48.7966V63.9182C95.169 67.5345 96.8966 69.6766 99.7066 69.6766C102.361 69.6766 104.054 67.7245 104.227 64.4595C104.227 64.1946 104.227 63.947 104.227 63.7109V48.6066C104.227 44.9903 102.534 42.8309 99.6951 42.8309Z" fill="#454193"/>
<path fill-rule="evenodd" clip-rule="evenodd" d="M89.6409 36.6175C90.5079 35.4254 90.9407 33.9724 90.8675 32.5002V29.5519H87.6716V32.5751C87.7176 33.2105 87.5754 33.8454 87.2627 34.4005C87.1567 34.5761 87.0072 34.7213 86.8287 34.8222C86.6501 34.923 86.4486 34.9762 86.2435 34.9764C86.0437 34.9868 85.8447 34.945 85.6659 34.8552C85.4872 34.7653 85.335 34.6304 85.2242 34.4638C84.9227 33.9178 84.7904 33.2944 84.8442 32.673V16.8028C84.7897 16.1814 84.9221 15.5578 85.2242 15.012C85.335 14.8454 85.4872 14.7105 85.6659 14.6207C85.8447 14.5308 86.0437 14.489 86.2435 14.4995C86.4493 14.4956 86.6525 14.547 86.8317 14.6482C87.011 14.7495 87.1598 14.897 87.2627 15.0753C87.5754 15.6304 87.7176 16.2653 87.6716 16.9007V19.9181H90.8675V16.9526C90.9416 15.4802 90.5087 14.027 89.6409 12.8353C89.2288 12.3327 88.7103 11.9278 88.1228 11.6498C87.5353 11.3718 86.8934 11.2276 86.2435 11.2276C85.5935 11.2276 84.9517 11.3718 84.3642 11.6498C83.7767 11.9278 83.2582 12.3327 82.846 12.8353C81.9782 14.027 81.5453 15.4802 81.6195 16.9526V32.5002C81.5453 33.9726 81.9782 35.4258 82.846 36.6175C83.2593 37.1183 83.7782 37.5215 84.3656 37.7983C84.9529 38.0751 85.5942 38.2186 86.2435 38.2186C86.8928 38.2186 87.5341 38.0751 88.1214 37.7983C88.7087 37.5215 89.2276 37.1183 89.6409 36.6175Z" fill="#454193"/>
<path fill-rule="evenodd" clip-rule="evenodd" d="M110.705 33.6175C110.671 34.2337 110.452 35.2644 109.346 35.2644C108.241 35.2644 108.022 34.2279 107.993 33.6175C107.993 33.3699 107.993 16.4517 107.993 16.2156C108.022 15.5937 108.246 14.5572 109.346 14.5572C110.446 14.5572 110.671 15.5937 110.705 16.2099C110.705 16.4863 110.705 33.1626 110.705 33.6175ZM109.352 11.2404C106.669 11.2404 104.958 13.2155 104.78 16.5151C104.78 16.7857 104.78 17.0391 104.78 17.2752V32.7365C104.78 36.3988 106.507 38.5813 109.387 38.5813C112.07 38.5813 113.78 36.6119 113.959 33.3123C113.959 33.0417 113.959 32.7941 113.959 32.5522V17.0852C113.936 13.4286 112.225 11.2404 109.352 11.2404Z" fill="#454193"/>
<path fill-rule="evenodd" clip-rule="evenodd" d="M74.8592 38.2186C75.5107 38.238 76.1575 38.1031 76.747 37.8249C77.3364 37.5467 77.8517 37.133 78.2509 36.6177C79.1158 35.4252 79.5448 33.9716 79.4659 32.5005V29.5522H76.27V32.5753C76.316 33.2108 76.1738 33.8457 75.8611 34.4008C75.7547 34.5759 75.6051 34.7209 75.4266 34.8217C75.2482 34.9225 75.0469 34.9758 74.8419 34.9766C74.6421 34.987 74.4431 34.9453 74.2644 34.8554C74.0856 34.7656 73.9334 34.6307 73.8227 34.4641C73.5211 33.9181 73.3888 33.2947 73.4426 32.6732V16.8031C73.3881 16.1816 73.5205 15.558 73.8227 15.0122C73.9334 14.8456 74.0856 14.7108 74.2644 14.6209C74.4431 14.531 74.6421 14.4893 74.8419 14.4997C75.0477 14.4958 75.2509 14.5472 75.4301 14.6485C75.6094 14.7498 75.7582 14.8972 75.8611 15.0756C76.1738 15.6307 76.316 16.2656 76.27 16.901V19.9184H79.4659V16.9528C79.5407 15.4795 79.1055 14.0255 78.2336 12.8356C77.822 12.3331 77.304 11.9282 76.717 11.6502C76.13 11.3722 75.4885 11.228 74.839 11.228C74.1895 11.228 73.5481 11.3722 72.961 11.6502C72.374 11.9282 71.856 12.3331 71.4444 12.8356C70.5889 14.0317 70.1683 15.4846 70.2524 16.9528V32.5005C70.1783 33.9728 70.6112 35.426 71.479 36.6177C71.8776 37.1307 72.3912 37.5429 72.9783 37.821C73.5655 38.099 74.2097 38.2352 74.8592 38.2186Z" fill="#454193"/>
<path fill-rule="evenodd" clip-rule="evenodd" d="M50.9157 14.7356H53.3803V18.1043C53.3778 19.4383 52.9299 20.7333 52.1077 21.7839L50.9157 23.3041V14.7356ZM47.6853 12.5014V38.0053H50.9157V28.1239L54.6472 23.356C55.9162 21.7307 56.6072 19.7287 56.6108 17.6667V11.5167H48.6584C48.5299 11.5174 48.4027 11.5435 48.2842 11.5934C48.1658 11.6433 48.0583 11.716 47.9679 11.8075C47.8775 11.8989 47.8061 12.0073 47.7576 12.1263C47.7091 12.2454 47.6845 12.3728 47.6853 12.5014Z" fill="#454193"/>
<path fill-rule="evenodd" clip-rule="evenodd" d="M50.9158 46.2454H53.3804V49.6199C53.3765 50.9537 52.9288 52.2483 52.1078 53.2995L50.9158 54.8139V46.2454ZM47.6853 44.0112V69.5151H50.9158V59.6337L54.6472 54.8658C55.9162 53.2405 56.6072 51.2385 56.6108 49.1765V43.0322H48.6585C48.3998 43.0338 48.1523 43.1376 47.97 43.321C47.7876 43.5044 47.6853 43.7525 47.6853 44.0112Z" fill="#454193"/>
<path fill-rule="evenodd" clip-rule="evenodd" d="M76.9955 66.2674H73.8111C74.2492 62.8293 74.4799 59.368 74.5021 55.9023V48.0996C74.5021 47.1207 74.7209 46.2685 75.8093 46.2685H76.9955V66.2674ZM80.226 66.2674V45.4911V44.0112C80.226 43.7515 80.1228 43.5026 79.9392 43.319C79.7557 43.1354 79.5067 43.0322 79.247 43.0322H75.792C73.1374 43.0322 71.4444 44.9843 71.2716 48.2494C71.2716 48.52 71.2716 48.7676 71.2716 48.9979V55.908C71.2716 59.3631 70.6958 65.2078 70.5749 66.2731H69.0432V69.5209H81.9247V66.2731L80.226 66.2674Z" fill="#454193"/>
<path fill-rule="evenodd" clip-rule="evenodd" d="M64.5573 34.5503C64.5581 34.6022 64.5485 34.6537 64.5292 34.7019C64.5099 34.7501 64.4811 34.7939 64.4447 34.8309C64.4083 34.8679 64.3648 34.8972 64.317 34.9173C64.2691 34.9373 64.2177 34.9476 64.1658 34.9476H62.1043C61.9989 34.9476 61.8978 34.9057 61.8233 34.8312C61.7488 34.7567 61.7069 34.6557 61.7069 34.5503V33.0185C61.7069 32.9666 61.7172 32.9152 61.7373 32.8674C61.7573 32.8195 61.7867 32.776 61.8236 32.7396C61.8606 32.7032 61.9045 32.6744 61.9526 32.6551C62.0008 32.6358 62.0523 32.6262 62.1043 32.627H64.5573V34.5503ZM64.3615 11.5167V23.3041L63.1696 21.7839C62.3494 20.7326 61.9036 19.4377 61.9027 18.1043V11.5167H58.6722V17.6667C58.6764 19.7276 59.3651 21.7289 60.6301 23.356L64.5573 28.3312V29.552H61.5111C61.1378 29.552 60.7682 29.6256 60.4234 29.7686C60.0786 29.9117 59.7654 30.1213 59.5017 30.3855C59.238 30.6497 59.029 30.9634 58.8867 31.3085C58.7444 31.6536 58.6715 32.0233 58.6722 32.3966V35.1664C58.6722 35.9193 58.9713 36.6414 59.5037 37.1738C60.0361 37.7062 60.7582 38.0053 61.5111 38.0053H64.7589C65.5118 38.0053 66.2339 37.7062 66.7663 37.1738C67.2987 36.6414 67.5978 35.9193 67.5978 35.1664V32.2469C67.5978 32.2469 67.5978 32.2469 67.5978 32.2066V11.5167H64.3615Z" fill="#454193"/>
<path fill-rule="evenodd" clip-rule="evenodd" d="M38.777 14.5053C38.7759 14.9811 38.6337 15.4459 38.3686 15.841C38.1034 16.2361 37.7271 16.5437 37.2872 16.725C36.8472 16.9063 36.3634 16.9531 35.8969 16.8596C35.4304 16.7661 35.002 16.5364 34.666 16.1995C34.3299 15.8627 34.1012 15.4338 34.0088 14.967C33.9164 14.5003 33.9644 14.0166 34.1468 13.5771C34.3291 13.1376 34.6376 12.762 35.0334 12.4978C35.4291 12.2336 35.8942 12.0925 36.37 12.0925C37.0069 12.094 37.6174 12.3473 38.0683 12.7972C38.5192 13.247 38.774 13.8569 38.777 14.4938V14.5053ZM36.37 11.5167C35.7787 11.5167 35.2006 11.6921 34.709 12.0208C34.2174 12.3494 33.8344 12.8165 33.6084 13.3629C33.3823 13.9094 33.3235 14.5106 33.4393 15.0905C33.555 15.6704 33.8403 16.2029 34.2588 16.6206C34.6773 17.0383 35.2104 17.3225 35.7905 17.4372C36.3706 17.5518 36.9717 17.4918 37.5177 17.2648C38.0637 17.0377 38.5301 16.6537 38.8578 16.1615C39.1855 15.6693 39.3598 15.0909 39.3586 14.4995C39.3586 14.1073 39.2813 13.719 39.131 13.3567C38.9808 12.9944 38.7605 12.6654 38.4829 12.3883C38.2053 12.1113 37.8758 11.8917 37.5133 11.7421C37.1507 11.5925 36.7622 11.5159 36.37 11.5167Z" fill="#E30613"/>
<path fill-rule="evenodd" clip-rule="evenodd" d="M36.8538 13.9235C36.8601 13.9826 36.8532 14.0423 36.8335 14.0983C36.8137 14.1543 36.7817 14.2051 36.7397 14.2471C36.6977 14.2891 36.6469 14.3211 36.5909 14.3409C36.5349 14.3606 36.4752 14.3675 36.4161 14.3612H35.967V13.5032H36.324C36.4321 13.4962 36.5404 13.5139 36.6407 13.555C36.71 13.5869 36.7677 13.6394 36.8058 13.7054C36.844 13.7714 36.8607 13.8476 36.8538 13.9235ZM37.0208 14.7528C37.1732 14.6684 37.2994 14.5437 37.3858 14.3924C37.4721 14.241 37.5152 14.0689 37.5102 13.8948C37.5223 13.7107 37.4766 13.5274 37.3795 13.3706C37.2825 13.2137 37.139 13.091 36.9689 13.0195C36.7848 12.9522 36.5889 12.9228 36.3931 12.9331H35.299V16.0829H35.9497V14.9716H36.4046L36.9805 16.1233H37.7118L37.0438 14.914L37.0208 14.7528Z" fill="#E30613"/>
<path fill-rule="evenodd" clip-rule="evenodd" d="M129.679 2.21709H23.9031C25.3384 2.60107 26.6485 3.35339 27.7036 4.39952H129.679C131.867 4.39952 133.595 6.33434 133.595 8.66649V72.1413C133.595 74.4907 131.867 76.4025 129.673 76.4025H8.32088C6.15572 76.4025 4.39941 74.4907 4.39941 72.1413V8.66649C4.39941 6.31131 6.15572 4.39952 8.32088 4.39952H16.8433C17.895 3.35312 19.2039 2.60235 20.6381 2.22285H8.32088C4.95798 2.22285 2.21698 5.10204 2.21698 8.67225V72.1413C2.21698 75.6942 4.95798 78.585 8.32088 78.585H129.679C133.042 78.585 135.783 75.7058 135.783 72.1413V8.66649C135.783 5.11356 133.019 2.22285 129.679 2.21709Z" fill="#454193"/>
</svg>
