<svg width="138" height="84" viewBox="0 0 138 84" fill="none" xmlns="http://www.w3.org/2000/svg">
<path fill-rule="evenodd" clip-rule="evenodd" d="M134.235 0.000128585H3.73373C3.24487 -0.00394538 2.76004 0.0888249 2.30722 0.273087C1.85439 0.457349 1.44255 0.729455 1.09543 1.07371C0.748311 1.41796 0.472799 1.82753 0.284786 2.27881C0.0967724 2.73009 -1.69729e-05 3.21413 2.23246e-09 3.703V80.2291C0.00964676 81.2082 0.40286 82.1444 1.0952 82.8368C1.78755 83.5291 2.7238 83.9223 3.70288 83.932H134.297C135.282 83.9222 136.222 83.5247 136.916 82.8258C137.609 82.1268 137.998 81.1827 138 80.1982V3.74003C138 3.24682 137.902 2.75847 137.713 2.30311C137.523 1.84775 137.246 1.43436 136.896 1.08676C136.546 0.739148 136.131 0.464185 135.674 0.277695C135.218 0.0912055 134.729 -0.00312696 134.235 0.000128585Z" fill="#E6007E"/>
<path fill-rule="evenodd" clip-rule="evenodd" d="M17.2616 35.8131H22.1185C24.6303 35.8131 25.6362 34.0974 25.6362 32.5052C25.6362 30.9129 24.6303 29.1973 22.1185 29.1973H17.2616V35.8131ZM26.5558 51.9391L20.7423 42.3919H17.2677V51.9391H10.2508V22.6247H21.1804C28.5492 22.6247 32.9864 26.4757 32.9864 32.499C32.9864 36.4796 31.061 39.4974 27.6234 41.0835L34.3195 51.9391H26.5558Z" fill="white"/>
<path fill-rule="evenodd" clip-rule="evenodd" d="M65.0225 22.6247V38.9112C65.0225 47.7055 59.5731 52.5254 51.8279 52.5254C44.0828 52.5254 38.6395 47.7117 38.6395 38.9112V22.6247H45.6688V39.1642C45.6688 43.3546 47.977 45.9528 51.8403 45.9528C55.7036 45.9528 58.0117 43.3546 58.0117 39.1642V22.6247H65.0225Z" fill="white"/>
<path fill-rule="evenodd" clip-rule="evenodd" d="M108.686 47.144H104.785L98.1015 32.0116H92.2263V47.144H87.5421V32.0116H81.6916V27.6299H101.44L106.458 39.5593L106.735 40.4233L107.013 39.5593L112.03 27.6299H117.301L108.661 47.144H108.686ZM99.4962 7.87503C93.9288 7.87381 88.4861 9.52363 83.8564 12.6158C79.2266 15.708 75.6179 20.1037 73.4865 25.247C71.3551 30.3903 70.7968 36.0501 71.8822 41.5107C72.9676 46.9713 75.6479 51.9873 79.5842 55.9245C83.5206 59.8617 88.536 62.5432 93.9964 63.6298C99.4567 64.7164 105.117 64.1593 110.26 62.029C115.404 59.8988 119.801 56.291 122.894 51.6619C125.987 47.0329 127.638 41.5905 127.638 36.0231C127.638 28.5588 124.673 21.4002 119.396 16.1216C114.118 10.843 106.96 7.87667 99.4962 7.87503Z" fill="white"/>
<path fill-rule="evenodd" clip-rule="evenodd" d="M15.3299 70.2744C15.1581 70.2769 14.9868 70.2934 14.8177 70.3238H14.6943L13.0958 73.9773L11.5221 70.3855L11.3925 70.3547C11.2189 70.3276 11.0436 70.3132 10.8679 70.3115C10.6944 70.3142 10.5212 70.3286 10.3495 70.3547L10.1459 70.3979V76.6619L10.3372 76.7051C10.4726 76.7377 10.6114 76.7543 10.7507 76.7545C10.8873 76.7497 11.0234 76.7353 11.158 76.7113L11.3493 76.6619V72.8726L12.5836 75.7053H12.7009C12.9601 75.7712 13.2316 75.7712 13.4908 75.7053H13.6081L14.8424 72.8541V76.6496L15.0337 76.6989C15.1671 76.7312 15.3038 76.7478 15.441 76.7483C15.5782 76.747 15.7148 76.7304 15.8483 76.6989L16.0335 76.6496V70.3855L15.8298 70.3485C15.6656 70.3097 15.4983 70.285 15.3299 70.2744Z" fill="white"/>
<path fill-rule="evenodd" clip-rule="evenodd" d="M21.31 70.3116C21.1667 70.3123 21.0239 70.3289 20.8842 70.361H20.7546L19.508 73.5084L18.2181 70.3857H18.0885C17.8147 70.3199 17.5292 70.3199 17.2554 70.3857L16.9653 70.4536L18.86 74.9834H18.9587L18.8476 75.2796C18.718 75.6252 18.5452 75.7672 18.2305 75.7672C18.0856 75.7697 17.9408 75.7573 17.7985 75.7302L17.5948 75.6746L17.5084 75.8598C17.4521 75.9682 17.4245 76.0894 17.4282 76.2115C17.4272 76.3354 17.4546 76.4579 17.5084 76.5695L17.5578 76.6559L17.6504 76.6867C17.8385 76.743 18.0341 76.7701 18.2305 76.767C18.6232 76.7799 19.0085 76.6577 19.3219 76.4206C19.6353 76.1836 19.8578 75.8462 19.9523 75.4648L22.0198 70.4227L21.7359 70.3548C21.596 70.3245 21.4532 70.31 21.31 70.3116Z" fill="white"/>
<path fill-rule="evenodd" clip-rule="evenodd" d="M26.2102 73.4281C26.3876 73.2946 26.5294 73.1195 26.623 72.9182C26.7167 72.7169 26.7593 72.4957 26.7471 72.274V71.9593C26.7471 70.8484 26.0436 70.2868 24.6488 70.2868C23.2541 70.2868 22.5073 70.799 22.5073 71.9099V72.2185L22.6987 72.2617C22.8259 72.293 22.9564 72.3095 23.0874 72.311C23.2207 72.3116 23.3534 72.295 23.4824 72.2617L23.6676 72.2123V71.9099C23.6676 71.5581 23.7416 71.2927 24.6488 71.2927C25.3771 71.2927 25.5128 71.5273 25.5128 71.9654V72.2802C25.5128 72.7369 25.3709 72.9652 24.6056 72.9652H23.6923L23.6367 73.138C23.6015 73.2455 23.5848 73.3582 23.5873 73.4713C23.5867 73.5822 23.6034 73.6925 23.6367 73.7984L23.6984 73.965H24.6056C25.5437 73.965 25.6239 74.2797 25.6239 74.6685V75.0697C25.6239 75.4585 25.5437 75.7794 24.5809 75.7794C24.0881 75.788 23.5988 75.6956 23.143 75.5078V74.6747L22.674 75.5387C22.6184 75.6563 22.591 75.7852 22.5937 75.9152C22.5925 76.0404 22.6177 76.1645 22.6678 76.2793L22.6987 76.3472L22.7665 76.3904C23.3396 76.6781 23.9776 76.8121 24.618 76.7792C26.1176 76.7792 26.8829 76.2052 26.8829 75.0697V74.6685C26.8952 74.42 26.839 74.1728 26.7204 73.954C26.6017 73.7353 26.4252 73.5533 26.2102 73.4281Z" fill="white"/>
<path fill-rule="evenodd" clip-rule="evenodd" d="M33.1469 70.3115C33.0058 70.3149 32.8653 70.3314 32.7272 70.3609L32.5359 70.4041V76.6558L32.7272 76.699C33.0053 76.7642 33.2947 76.7642 33.5727 76.699L33.764 76.6558V70.4102L33.5727 70.3609C33.4332 70.328 33.2903 70.3114 33.1469 70.3115Z" fill="white"/>
<path fill-rule="evenodd" clip-rule="evenodd" d="M29.1601 73.7861H30.0735C30.8943 73.7861 31.0424 74.033 31.0424 74.5082V75.0574C31.0424 75.4524 30.9684 75.7733 30.0735 75.7733H29.1601V73.7861ZM30.0735 72.7925C29.6847 72.7925 29.37 72.7925 29.1601 72.7925V70.3856L28.9626 70.3424C28.8252 70.3096 28.6843 70.293 28.543 70.2931C28.3998 70.2957 28.2572 70.3122 28.1172 70.3424L27.9258 70.3856V76.6497H28.148C28.185 76.6497 28.9565 76.7299 30.0735 76.7299C31.53 76.7299 32.2705 76.156 32.2705 75.0204V74.4712C32.2705 73.3603 31.53 72.7925 30.0735 72.7925Z" fill="white"/>
<path fill-rule="evenodd" clip-rule="evenodd" d="M39.3492 70.4412L39.0097 70.361C38.8661 70.3277 38.719 70.3112 38.5716 70.3116C38.4221 70.3119 38.2731 70.3285 38.1272 70.361H38.0285L36.3869 72.9283L36.1832 72.9838V70.3856L35.9919 70.3424C35.8538 70.313 35.7134 70.2965 35.5722 70.2931C35.427 70.2954 35.2823 70.3119 35.1402 70.3424L34.9489 70.3856V76.6373L35.1402 76.6805C35.2823 76.7111 35.427 76.7276 35.5722 76.7299C35.7115 76.7297 35.8503 76.7131 35.9857 76.6805L36.1832 76.6373V74.0268L36.4362 73.9589L38.1025 76.662H38.2136C38.3554 76.6939 38.5003 76.7104 38.6456 76.7114C38.7952 76.7126 38.9443 76.6961 39.09 76.662L39.4294 76.588L37.473 73.385L39.3492 70.4412Z" fill="white"/>
<path fill-rule="evenodd" clip-rule="evenodd" d="M41.7252 74.1563L42.3979 72.0272L43.0583 74.1563H41.7252ZM42.9595 70.3547C42.7818 70.3277 42.6024 70.3132 42.4226 70.3115C42.2408 70.3126 42.0593 70.3271 41.8795 70.3547L41.7314 70.3856L39.7565 76.6372L40.0219 76.699C40.1557 76.7289 40.2921 76.7455 40.4292 76.7483C40.5705 76.7473 40.7112 76.7308 40.8489 76.699H40.9908L41.466 75.1869H43.3668L43.8482 76.699H43.9902C44.1277 76.7314 44.2685 76.7479 44.4098 76.7483C44.547 76.7467 44.6836 76.7302 44.8171 76.699L45.0763 76.6372L43.1076 70.3856L42.9595 70.3547Z" fill="white"/>
<path fill-rule="evenodd" clip-rule="evenodd" d="M48.7731 70.3117C48.2391 70.3064 47.7054 70.3332 47.1747 70.3919H46.9833L46.3662 75.0884C46.2798 75.7056 46.1872 75.7549 45.8478 75.7549H45.6812L45.6133 75.9092C45.5739 76.0202 45.553 76.137 45.5516 76.2548C45.5522 76.3727 45.5731 76.4896 45.6133 76.6004L45.6812 76.7547H45.8478C47.1561 76.7547 47.44 75.9894 47.5511 75.1563L48.0633 71.3053H49.384V76.6313L49.5692 76.6806C49.7092 76.7109 49.8518 76.7274 49.995 76.73C50.1362 76.7277 50.2768 76.7111 50.4147 76.6806L50.606 76.6374V70.4166H50.39C49.8536 70.3497 49.3137 70.3147 48.7731 70.3117Z" fill="white"/>
<path fill-rule="evenodd" clip-rule="evenodd" d="M53.0128 73.7861H53.9262C54.747 73.7861 54.9013 74.033 54.9013 74.5082V75.0574C54.9013 75.4524 54.8272 75.7733 53.9262 75.7733H53.0128V73.7861ZM53.9262 72.7925C53.5435 72.7925 53.2226 72.7925 53.0128 72.7925V70.3856L52.8215 70.3424C52.6839 70.31 52.5431 70.2935 52.4018 70.2931C52.2566 70.2959 52.1119 70.3124 51.9698 70.3424L51.7785 70.3856V76.6497H52.0068C52.0068 76.6497 52.8153 76.7299 53.9262 76.7299C55.3888 76.7299 56.1232 76.156 56.1232 75.0204V74.4712C56.1232 73.3562 55.3909 72.7966 53.9262 72.7925Z" fill="white"/>
<path fill-rule="evenodd" clip-rule="evenodd" d="M61.2271 70.3115C61.0857 70.3114 60.9449 70.328 60.8074 70.3609L60.6161 70.4102V72.959H58.4375V70.4041L58.2462 70.3609C58.1061 70.3311 57.9636 70.3146 57.8204 70.3115C57.6772 70.3141 57.5346 70.3306 57.3946 70.3609L57.2032 70.4041V76.6558L57.3946 76.699C57.5346 76.7292 57.6772 76.7457 57.8204 76.7483C57.9617 76.7484 58.1026 76.7318 58.2401 76.699L58.4375 76.6558V73.9773H60.6161V76.6681L60.8074 76.7175C60.9449 76.7503 61.0857 76.7669 61.2271 76.7668C61.3702 76.7637 61.5128 76.7472 61.6529 76.7175L61.8442 76.6743V70.4041L61.6529 70.3609C61.5128 70.3311 61.3702 70.3146 61.2271 70.3115Z" fill="white"/>
<path fill-rule="evenodd" clip-rule="evenodd" d="M64.2572 73.7861H65.1768C65.9976 73.7861 66.1457 74.033 66.1457 74.5082V75.0574C66.1457 75.4524 66.0716 75.7733 65.1768 75.7733H64.2634V73.7861H64.2572ZM65.1706 72.7925C64.7818 72.7925 64.4609 72.7925 64.2572 72.7925V70.3856L64.0597 70.3424C63.9223 70.3096 63.7814 70.293 63.6401 70.2931C63.4968 70.2951 63.3542 70.3117 63.2143 70.3424L63.0229 70.3856V76.6497H63.2451C63.276 76.6497 64.0536 76.7299 65.1706 76.7299C66.6271 76.7299 67.3676 76.156 67.3676 75.0204V74.4712C67.3676 73.3603 66.6271 72.7925 65.1768 72.7925H65.1706Z" fill="white"/>
<path fill-rule="evenodd" clip-rule="evenodd" d="M68.2625 70.3115C68.1214 70.3144 67.9808 70.3309 67.8429 70.3609L67.6516 70.4041V76.6558L67.8429 76.699C67.9809 76.7284 68.1214 76.7449 68.2625 76.7483C68.4037 76.746 68.5443 76.7295 68.6822 76.699L68.8797 76.6558V70.4102L68.6884 70.3609C68.5488 70.328 68.4059 70.3114 68.2625 70.3115Z" fill="white"/>
<path fill-rule="evenodd" clip-rule="evenodd" d="M74.1624 70.3116C74.0333 70.3116 73.9047 70.3282 73.7798 70.361H73.6811L71.2804 74.2551V70.3733L71.089 70.3301C70.949 70.3004 70.8064 70.2838 70.6632 70.2807C70.52 70.2833 70.3774 70.2998 70.2374 70.3301L70.0461 70.3733V76.6126L70.225 76.6682C70.3522 76.7001 70.4827 76.7166 70.6138 76.7176C70.7408 76.716 70.8672 76.6994 70.9903 76.6682H71.089L73.5021 72.7678V76.6435L73.6934 76.6929C73.8309 76.7257 73.9717 76.7423 74.1131 76.7422C74.2543 76.7399 74.3949 76.7234 74.5327 76.6929L74.7302 76.6497V70.4165L74.5451 70.361C74.42 70.3288 74.2915 70.3122 74.1624 70.3116Z" fill="white"/>
<path fill-rule="evenodd" clip-rule="evenodd" d="M72.3851 70.4226C73.3046 70.4226 73.749 70.0523 73.749 69.2994V69.0402L73.5823 68.9847C73.3721 68.9021 73.1384 68.9021 72.9282 68.9847L72.7677 69.0464V69.3117C72.7677 69.4907 72.7677 69.5833 72.3851 69.5833C72.0024 69.5833 72.0148 69.5031 72.0148 69.3117V69.0402L71.8481 68.9847C71.7411 68.9462 71.6286 68.9253 71.5149 68.9229C71.405 68.9238 71.2963 68.9447 71.194 68.9847L71.0335 69.0464V69.3056C71.0335 70.0647 71.4593 70.4226 72.3851 70.4226Z" fill="white"/>
<path fill-rule="evenodd" clip-rule="evenodd" d="M82.4569 70.3301H78.1368L78.069 70.4844C78.0288 70.5952 78.0079 70.7121 78.0072 70.83C78.0045 70.9508 78.0276 71.0707 78.0751 71.1818L78.143 71.3237H79.7105V76.6559L79.908 76.6991C80.048 76.7299 80.1906 76.7464 80.3339 76.7485C80.4752 76.7485 80.6161 76.7319 80.7535 76.6991L80.9448 76.6559V71.3237H82.4569L82.5186 71.1756C82.5613 71.0655 82.5823 70.9481 82.5803 70.83C82.5831 70.7119 82.5621 70.5943 82.5186 70.4844L82.4569 70.3301Z" fill="white"/>
<path fill-rule="evenodd" clip-rule="evenodd" d="M87.4804 75.7363H84.7773V73.9775H87.1595L87.2212 73.8294C87.2644 73.7172 87.2854 73.5977 87.2829 73.4776C87.2827 73.3577 87.2619 73.2387 87.2212 73.1258L87.1533 72.9839H84.7773V71.3237H87.4372L87.4989 71.1695C87.542 71.0616 87.5629 70.9462 87.5606 70.83C87.5634 70.7119 87.5424 70.5943 87.4989 70.4844L87.4372 70.3301H85.4932C84.4688 70.3301 83.8022 70.3857 83.7714 70.3857H83.543V76.625H83.7714C83.8022 76.625 84.4688 76.6806 85.4932 76.6806H87.4804L87.5421 76.5263C87.5851 76.4184 87.6061 76.303 87.6038 76.1869C87.6066 76.0687 87.5856 75.9512 87.5421 75.8413L87.4804 75.7363Z" fill="white"/>
<path fill-rule="evenodd" clip-rule="evenodd" d="M91.5166 70.3117C90.9826 70.3064 90.4489 70.3332 89.9182 70.3919H89.7269L89.1097 75.0884C89.0233 75.7056 88.9307 75.7549 88.5913 75.7549H88.4247L88.3568 75.9092C88.3174 76.0202 88.2965 76.137 88.2951 76.2548C88.2957 76.3727 88.3166 76.4896 88.3568 76.6004L88.4247 76.7547H88.5913C89.8997 76.7547 90.1835 75.9894 90.3008 75.1563L90.8069 71.3053H92.1276V76.6313L92.3189 76.6806C92.4567 76.7117 92.5973 76.7282 92.7385 76.73C92.8797 76.7277 93.0203 76.7111 93.1582 76.6806L93.3557 76.6374V70.4166H93.1335C92.5971 70.3497 92.0572 70.3147 91.5166 70.3117Z" fill="white"/>
<path fill-rule="evenodd" clip-rule="evenodd" d="M98.4595 75.7363H95.7564V73.9775H98.1385L98.2003 73.8294C98.2435 73.7172 98.2644 73.5977 98.262 73.4776C98.2618 73.3577 98.2409 73.2387 98.2003 73.1258L98.1324 72.9839H95.7564V71.3237H98.4163L98.478 71.1695C98.521 71.0616 98.542 70.9462 98.5397 70.83C98.5425 70.7119 98.5215 70.5943 98.478 70.4844L98.4163 70.3301H96.4722C95.4478 70.3301 94.7813 70.3857 94.7504 70.3857H94.5221V76.625H94.7504C94.7813 76.625 95.4478 76.6806 96.4722 76.6806H98.4595L98.5212 76.5263C98.5642 76.4184 98.5852 76.303 98.5829 76.1869C98.5857 76.0687 98.5647 75.9512 98.5212 75.8413L98.4595 75.7363Z" fill="white"/>
<path fill-rule="evenodd" clip-rule="evenodd" d="M103.952 70.4411L103.606 70.3609C103.465 70.3275 103.32 70.3109 103.174 70.3115C103.025 70.3114 102.876 70.3279 102.73 70.3609H102.631L100.971 72.9467L100.768 73.0023V70.4041L100.576 70.3609C100.436 70.3311 100.294 70.3146 100.15 70.3115C100.007 70.3136 99.8645 70.3301 99.7246 70.3609L99.5333 70.4041V76.6558L99.7246 76.699C99.8645 76.7298 100.007 76.7463 100.15 76.7483C100.292 76.7484 100.433 76.7318 100.57 76.699L100.768 76.6558V74.0452L101.014 73.9774L102.687 76.6805H102.792C102.936 76.7116 103.083 76.7282 103.23 76.7298C103.38 76.7311 103.529 76.7145 103.674 76.6805L104.014 76.6064L102.057 73.4034L103.952 70.4411Z" fill="white"/>
<path fill-rule="evenodd" clip-rule="evenodd" d="M106.322 74.1563L106.995 72.0272L107.655 74.1563H106.322ZM107.525 70.3547C107.35 70.3276 107.172 70.3131 106.995 70.3115C106.813 70.3126 106.631 70.3271 106.452 70.3547L106.303 70.3856L104.329 76.6372L104.594 76.699C104.728 76.7289 104.864 76.7455 105.001 76.7483C105.142 76.7473 105.283 76.7308 105.421 76.699H105.563L106.038 75.1869H107.939L108.42 76.699H108.562C108.7 76.7314 108.84 76.7479 108.982 76.7483C109.119 76.7462 109.255 76.7296 109.389 76.699L109.648 76.6372L107.673 70.3856L107.525 70.3547Z" fill="white"/>
<path fill-rule="evenodd" clip-rule="evenodd" d="M114.456 70.3115C114.313 70.3122 114.17 70.3288 114.03 70.3609L113.845 70.4102V72.959H111.66V70.4041L111.469 70.3609C111.331 70.3309 111.19 70.3144 111.049 70.3115C110.904 70.3143 110.759 70.3309 110.617 70.3609L110.426 70.4041V76.6558L110.617 76.699C110.759 76.729 110.904 76.7455 111.049 76.7483C111.191 76.7479 111.331 76.7314 111.469 76.699L111.66 76.6558V73.9773H113.845V76.6681L114.03 76.7175C114.308 76.7827 114.597 76.7827 114.876 76.7175L115.067 76.6743V70.4041L114.876 70.3609C114.738 70.3309 114.597 70.3144 114.456 70.3115Z" fill="white"/>
<path fill-rule="evenodd" clip-rule="evenodd" d="M117.844 74.1563L118.511 72.0272L119.177 74.1563H117.844ZM119.078 70.3547C118.721 70.2971 118.356 70.2971 117.998 70.3547L117.85 70.3856L115.875 76.6373L116.141 76.699C116.277 76.7287 116.415 76.7452 116.554 76.7484C116.693 76.7475 116.832 76.7309 116.968 76.699H117.11L117.585 75.187H119.486L119.961 76.699H120.103C120.242 76.7319 120.385 76.7484 120.529 76.7484C120.664 76.747 120.798 76.7304 120.93 76.699L121.195 76.6373L119.22 70.3856L119.078 70.3547Z" fill="white"/>
<path fill-rule="evenodd" clip-rule="evenodd" d="M126.503 70.3917C125.436 70.2848 124.36 70.2848 123.293 70.3917H123.102L122.485 75.0882C122.399 75.7053 122.306 75.7547 121.967 75.7547H121.8L121.732 75.909C121.696 76.0207 121.677 76.1372 121.676 76.2546C121.677 76.372 121.695 76.4887 121.732 76.6002L121.8 76.7545H121.954C123.263 76.7545 123.546 75.9892 123.664 75.1561L124.176 71.3051H125.49V76.6311L125.682 76.6804C125.82 76.7115 125.96 76.728 126.101 76.7298C126.243 76.7275 126.383 76.7109 126.521 76.6804L126.719 76.6372V70.4164L126.503 70.3917Z" fill="white"/>
</svg>
