<?xml version="1.0" encoding="UTF-8"?>
<svg width="97px" height="57px" viewBox="0 0 97 57" version="1.1" xmlns="http://www.w3.org/2000/svg" xmlns:xlink="http://www.w3.org/1999/xlink">
    <!-- Generator: Sketch 48.2 (47327) - http://www.bohemiancoding.com/sketch -->
    <title>Logo RR svg</title>
    <desc>Created with Sketch.</desc>
    <defs></defs>
    <g id="Звезды-РР-2" stroke="none" stroke-width="1" fill="none" fill-rule="evenodd" transform="translate(-458.000000, -6.000000)">
        <g id="top_menu" transform="translate(-2.000000, 0.000000)">
            <g id="Logo-RR-svg" transform="translate(460.000000, 6.000000)">
                <rect id="Rectangle-5" fill="#FFFFFF" opacity="0.900000036" x="0" y="0" width="97" height="57" rx="5"></rect>
                <path d="M6,2 L91,2 C93.209139,2 95,3.790861 95,6 L95,51 C95,53.209139 93.209139,55 91,55 L6,55 C3.790861,55 2,53.209139 2,51 L2,6 C2,3.790861 3.790861,2 6,2 Z M10.3452301,3.99318708 C10.5708872,3.72072516 10.8949432,3.38864764 11.3173981,2.99695452 C11.7398529,2.60526141 12.1728973,2.27318389 12.6165314,2.00072197 L19.073306,2.00072197 C19.3090124,2.1185034 19.6616929,2.37860235 20.1313477,2.78101883 C20.6010024,3.18343531 21.0115415,3.5874914 21.362965,3.99318708 L10.3452301,3.99318708 Z M7,4 L90,4 C91.6568542,4 93,5.34314575 93,7 L93,50 C93,51.6568542 91.6568542,53 90,53 L7,53 C5.34314575,53 4,51.6568542 4,50 L4,7 C4,5.34314575 5.34314575,4 7,4 Z" id="Rectangle-5-Copy-3" fill="#ED1C24" opacity="0.900000036"></path>
                <g id="logo-4b976d" transform="translate(8.000000, 3.000000)" fill-rule="nonzero">
                    <g id="Group" transform="translate(26.000000, 5.000000)" fill="#434CA0">
                        <path d="M34.5546667,15.2305263 L34.5609733,15.2305263 L34.5609733,12.012 L35.44904,10.7917895 C35.66794,10.99 36.22344,11.5912632 36.22344,12.5793684 L36.22344,19.1424211 L38.3955733,19.1424211 L38.3955733,12.4098947 C38.3955733,11.0902105 37.8456467,9.84494737 36.8871067,8.99315789 L36.8103267,8.92536842 L37.0683867,8.57094737 C37.9190533,7.40452632 38.3898533,5.94557895 38.3898533,4.46452632 L38.3898533,0.028 L36.2184533,0.028 L36.2184533,4.78063158 C36.2184533,5.73926316 35.9161733,6.68168421 35.3670533,7.43473684 L34.5640533,8.52968421 L34.5640533,0.0265263158 L32.39192,0.0265263158 L32.39192,19.1402105 L34.5530533,19.1402105 L34.5546667,15.2305263 Z" id="XMLID_363_"></path>
                        <path d="M54.4133333,2.36526316 L54.4133333,0.0302105263 L50.0492667,0.0302105263 C49.69888,0.0302105263 49.4086267,0.346021053 49.4086267,0.735294737 L49.4086267,18.4342421 C49.4086267,18.8265368 49.69888,19.1382947 50.0492667,19.1382947 L54.4492667,19.1382947 L54.4492667,16.8025053 L51.5760667,16.8025053 L51.5760667,8.40250526 L54.3231333,8.40250526 L54.3231333,6.06892632 L51.5804667,6.06892632 L51.5804667,2.35671579 L54.4133333,2.36526316 Z" id="XMLID_361_"></path>
                        <polygon id="XMLID_360_" points="31.3903333 22.1575789 29.2181633 22.1575789 29.2181633 27.8704632 27.5565033 30.4754579 27.5565033 22.1575789 25.3843333 22.1575789 25.3843333 41.2675789 27.5565033 41.2675789 27.5565033 34.1667053 29.2181633 31.6019421 29.2181633 41.2675789 31.3903333 41.2675789"></polygon>
                        <g>
                            <path d="M12.7086667,22.1568421 L10.4096667,22.1572385 C8.62766667,22.1572385 7.49393333,23.5646069 7.37586667,25.9195543 C7.37586667,26.1106912 7.36585667,26.2916596 7.36585667,26.4626806 L7.36585667,41.2658385 L9.53432333,41.2625964 L9.53432333,34.1668069 L11.19899,34.1668069 L11.19899,41.2655438 L13.3711233,41.2655438 L13.3711233,22.859228 C13.3711233,22.4669333 13.08087,22.1551754 12.7104633,22.1551754 L12.7086667,22.1568421 Z M11.1914,31.8315789 L9.53993333,31.8315789 L9.53993333,25.8101053 C9.53993333,25.1033263 9.68711333,24.4896842 10.4162667,24.4896842 L11.2082667,24.4896842 L11.1914,31.8315789 Z" id="XMLID_347_"></path>
                            <path d="M36.3953333,22.1568421 C34.6434,22.1568421 33.5221333,23.5450526 33.4121333,25.8683158 C33.4021233,26.0594526 33.3921133,26.2304 33.3921133,26.4013474 L33.3921133,37.0339789 L33.39358,37.0835758 L33.39358,37.1539811 C33.39358,39.7285074 34.5148467,41.2677705 36.39658,41.2677705 C38.1514467,41.2677705 39.26978,39.8817705 39.3856467,37.5614547 C39.3856467,37.3703179 39.3956567,37.1893495 39.3956567,37.0183284 L39.3956567,26.2604337 C39.3956567,23.6859074 38.27439,22.1466442 36.3926567,22.1466442 L36.3953333,22.1568421 Z M37.279,37.7778947 C37.2564793,38.2113789 37.1119467,38.9354737 36.3938667,38.9354737 C35.67498,38.9354737 35.5307333,38.2088 35.5087333,37.7786316 C35.5054333,37.6095263 35.5014,25.8196842 35.5043333,25.6575789 C35.5264947,25.2240947 35.6702867,24.4970526 36.3894667,24.4970526 C37.10872,24.4970526 37.2526,25.2241684 37.2746,25.6553684 C37.2800267,25.8501895 37.2833047,37.4669474 37.2786333,37.7764211 L37.279,37.7778947 Z" id="XMLID_338_"></path>
                            <path d="M30.4626667,18.0010526 C31.0832867,17.2768842 31.3932667,16.3011579 31.3932667,15.0846316 L31.3932667,13.0008421 L28.974,13.0008421 L28.974,15.1384211 C28.974,15.722 28.86906,16.1574737 28.6621867,16.4315789 C28.4636,16.6941895 28.21126,16.8217368 27.8899867,16.8217368 C27.5502333,16.8217368 27.3050067,16.7062 27.1177867,16.4576632 C26.9203733,16.1958632 26.82922,15.7932526 26.82922,15.1895579 L26.82922,3.97482105 C26.82922,3.37142105 26.9208133,2.96903158 27.1169067,2.70745263 C27.3047133,2.45965263 27.54994,2.34418947 27.8891067,2.34418947 C28.2105267,2.34418947 28.4633067,2.47181053 28.6613067,2.73434737 C28.86818,3.00904211 28.97312,3.44436842 28.97312,4.02897895 L28.97312,6.16508421 L31.3923867,6.16508421 L31.3923867,4.08203158 C31.3923867,2.86771579 31.0796933,1.88624211 30.46252,1.16561053 C29.82188,0.411084211 28.95112,0.0301368421 27.8899867,0.0301368421 C26.8288533,0.0301368421 25.9583867,0.411305263 25.3174533,1.16487368 C24.6968333,1.88602105 24.3868533,2.86771579 24.3868533,4.08276842 L24.3868533,15.0838211 C24.3868533,16.2988737 24.6995467,17.2803474 25.3159867,18.0017158 C25.9566267,18.7562421 26.8273867,19.1379263 27.88852,19.1379263 C28.9525867,19.1379263 29.8186533,18.7563158 30.4617867,18.0031895 L30.4626667,18.0010526 Z" id="XMLID_335_"></path>
                            <path d="M43.9046667,0.0302105263 C41.8623333,0.0302105263 40.5614,1.40810526 40.4213333,3.71515789 C40.4113233,3.90526316 40.4013133,4.07923158 40.4013133,4.24723158 L40.4013133,14.9314421 L40.403,14.9802137 L40.403,15.0606768 C40.403,17.6153084 41.7142,19.1442558 43.9068667,19.1442558 C45.9492,19.1442558 47.2604,17.7663611 47.3902,15.4629926 C47.40021,15.2718558 47.41022,15.1009084 47.41022,14.9299611 L47.41022,4.11311895 C47.41022,1.55406632 46.09902,0.0273294737 43.9070867,0.0273294737 L43.9046667,0.0302105263 Z M44.9386667,15.6733684 C44.9126773,16.1053789 44.7428667,16.8272632 43.9024667,16.8272632 C43.0606,16.8272632 42.8912,16.1022842 42.8662667,15.6748421 C42.8624533,15.5039684 42.8574593,3.67905263 42.86128,3.51694737 C42.8868587,3.08456842 43.05576,2.35936842 43.8982133,2.35936842 C44.7393467,2.35936842 44.9080133,3.08434737 44.9344133,3.514 C44.94072,3.70683158 44.9448927,15.3624211 44.9390333,15.6718947 L44.9386667,15.6733684 Z" id="XMLID_327_"></path>
                            <path d="M19.8806667,19.1431579 C20.944,19.1431579 21.8093333,18.7615474 22.4539333,18.0084211 C23.0745533,17.2842526 23.3845333,16.3085263 23.3845333,15.092 L23.3845333,13.0067368 L20.9645333,13.0067368 L20.9645333,15.1443158 C20.9645333,15.7278947 20.8592267,16.1633684 20.6522067,16.4374737 C20.45362,16.7000842 20.20128,16.8276316 19.8800067,16.8276316 C19.5402533,16.8276316 19.2950267,16.7120947 19.1078067,16.4635579 C18.9103933,16.2017579 18.8188,15.7991474 18.8188,15.1954526 L18.8188,3.98071579 C18.8188,3.37731579 18.9103933,2.97492632 19.1064867,2.71334737 C19.2942933,2.46554737 19.5398867,2.35008421 19.87942,2.35008421 C20.20084,2.35008421 20.45318,2.47770526 20.65162,2.74024211 C20.8584933,3.01493684 20.9639467,3.45055789 20.9639467,4.03487368 L20.9639467,6.17097895 L23.3832133,6.17097895 L23.3832133,4.08792632 C23.3832133,2.87361053 23.07052,1.89213684 22.45408,1.17150526 C21.81344,0.416978947 20.94268,0.0360315789 19.8815467,0.0360315789 C18.8204133,0.0360315789 17.9499467,0.4172 17.3090133,1.17076842 C16.6883933,1.89191579 16.3784133,2.87361053 16.3784133,4.08866316 L16.3784133,15.0897158 C16.3784133,16.3047684 16.6911067,17.2862421 17.3075467,18.0076105 C17.9481867,18.7621368 18.8189467,19.1438211 19.88008,19.1438211 L19.8806667,19.1431579 Z" id="XMLID_323_"></path>
                            <path d="M0.359333333,0.735368421 L0.359333333,19.1416842 L2.5322,19.1416842 L2.5322,12.0090526 L5.0424,8.56726316 C5.89306667,7.40084211 6.36386667,5.94189474 6.36386667,4.46084211 L6.36386667,0.0257894737 L1.0186,0.0257894737 C0.648266667,0.0257894737 0.35794,0.3416 0.35794,0.730873684 L0.359333333,0.735368421 Z M2.53366667,2.34831579 L4.19026667,2.34831579 L4.19026667,4.78136842 C4.19026667,5.74 3.88747333,6.68242105 3.3374,7.43547368 L2.53366667,8.53042105 L2.53366667,2.34831579 Z" id="XMLID_315_"></path>
                            <path d="M0.359333333,22.8642105 L0.359333333,41.2705263 L2.5322,41.2705263 L2.5322,34.1408421 L5.0424,30.6990526 C5.89306667,29.5326316 6.36386667,28.0736842 6.36386667,26.5955789 L6.36386667,22.1597895 L1.0186,22.1597895 C0.648266667,22.1597895 0.35794,22.4716211 0.35794,22.8638421 L0.359333333,22.8642105 Z M2.53366667,24.4771579 L4.19026667,24.4771579 L4.19026667,26.9102105 C4.19026667,27.8681053 3.88747333,28.8112632 3.3374,29.5643158 L2.53366667,30.6592632 L2.53366667,24.4771579 Z" id="XMLID_309_"></path>
                            <path d="M23.1953333,38.9273684 L23.1953333,23.9473684 L23.19306,23.9473684 L23.19306,22.8612632 C23.19306,22.4689684 22.8827133,22.1572105 22.51238,22.1572105 L20.1173133,22.1572105 C18.2612467,22.1572105 17.0791133,23.5645789 16.9559133,25.9195263 C16.944004,26.1138316 16.9382473,26.2914842 16.937866,26.4611789 L16.9351527,26.4619895 L16.9351527,31.4378842 C16.9351527,33.9446211 16.5241193,38.1475684 16.4465327,38.9168316 L15.3751327,38.9168316 L15.3751327,41.2599895 L24.380466,41.2599895 L24.3785593,38.9131474 L23.1953333,38.9273684 Z M20.9359333,38.9273684 L18.7080667,38.9273684 C18.97654,36.4582105 19.1924333,34.3235789 19.1924333,31.4484211 L19.1924333,25.8196842 L19.1947067,25.8188737 C19.1947067,25.1118737 19.3479733,24.4984526 20.10844,24.4984526 L20.93344,24.4984526 L20.9357133,24.4992632 L20.9357133,38.934 L20.9359333,38.9273684 Z" id="XMLID_306_"></path>
                            <path d="M11.198,0.0302105263 L11.198,8.53336842 L10.3935333,7.43842105 C9.83297333,6.69421053 9.5326,5.74884211 9.5326,4.788 L9.5326,0.0390526316 L7.36046667,0.0390526316 L7.36046667,4.47189474 C7.36046667,5.95368421 7.82965333,7.41115789 8.68193333,8.57757895 L11.3248667,12.1704211 L11.3248667,13.0524211 L9.273,13.0524211 C8.21186667,13.0524211 7.3612,13.9675789 7.3612,15.1045263 L7.3612,17.1028421 C7.3612,18.2294737 8.21186667,19.1446316 9.273,19.1446316 L11.4568667,19.1446316 C12.518,19.1446316 13.3686667,18.2294737 13.3686667,17.0925263 L13.3686667,15.0057895 C13.3686667,14.9950905 13.3675667,14.9851726 13.3672,14.9744663 L13.3672,0.02394 L11.198,0.0302105263 Z M11.3296333,16.646 C11.3296333,16.8033895 11.2106133,16.9314526 11.0638733,16.9314526 L9.67567333,16.9314526 C9.52893333,16.9314526 9.40947333,16.8038316 9.40947333,16.646 L9.40947333,15.5407368 C9.40947333,15.3833474 9.52849333,15.2552842 9.67567333,15.2552842 L11.32934,15.2552842 L11.3296333,16.646 Z" id="XMLID_303_"></path>
                        </g>
                    </g>
                    <g id="Group" fill="#ED1C24">
                        <path d="M19.74,39.274375 L15.3850345,39.274375 C15.8561586,36.4977031 18.7262069,35.2624844 20.0231379,29.9184375 C21.7378966,22.8552187 18.3684828,18.3226562 16.007069,16.126875 C15.9991614,16.117453 16.2120724,23.9479687 13.8208966,28.6846875 C14.5026,25.8198906 14.8969655,22.4336875 14.8969655,18.8073437 C14.8969655,8.51140625 11.7237931,0.1615625 7.80982759,0.1615625 C3.89368966,0.162296875 0.720517241,8.51140625 0.720517241,18.8073437 C0.720517241,29.1032812 3.89368966,37.453125 7.80765517,37.453125 C10.1719655,37.453125 12.2668966,34.4025312 13.5544138,29.7201562 C14.0907103,29.3689047 15.0055862,29.3454781 15.1822759,29.3454781 C16.815931,29.3454781 18.1251724,31.4568062 15.5386241,35.0075094 C14.1794172,37.0586187 13.7384172,38.3114625 13.6355897,39.2705562 L8.93521034,39.2705562 C8.45742414,39.2705562 8.18355517,39.5300109 8.18355517,39.9817984 L8.18355517,43.9856109 C7.09734828,44.0658047 6.23345172,44.9983141 6.23345172,46.1410016 L6.23345172,46.2813406 L20.4989694,46.2813406 L20.498969,39.9921531 C20.4993462,39.5404391 20.2256793,39.2809109 19.7480379,39.2809109 L19.74,39.274375 Z M9.32689655,31.6882812 C7.64762069,31.6882812 6.28624138,26.6056719 6.28624138,20.3421875 C6.28624138,14.0742969 7.64762069,8.99609375 9.32689655,8.99609375 C9.39219207,8.99609375 9.45709655,9.0062575 9.52132759,9.02149578 C9.11805517,7.62030828 8.59805172,6.33221453 7.98325862,5.17630828 C11.9442931,10.1259958 12.132569,16.0009958 12.1398103,15.993652 L12.1333655,15.9827172 C12.2828276,17.3236859 12.3658138,18.7953734 12.3658138,20.3390297 C12.3654365,26.6091234 11.0029862,31.6851234 9.32443448,31.6851234 L9.32689655,31.6882812 Z" id="XMLID_364_"></path>
                        <path d="M18.1034483,5.57610937 C16.8695172,5.57610937 15.8658621,6.5946875 15.8658621,7.84532812 C15.8656644,9.0974375 16.8702414,10.1145469 18.1034483,10.1145469 C19.3381034,10.1145469 20.3424828,9.0974375 20.3424828,7.84532812 C20.3424828,6.59395312 19.3381034,5.57610937 18.1034483,5.57610937 Z M19.9065517,7.84532812 C19.9065517,8.853625 19.0976897,9.67392187 18.1034483,9.67392187 C17.109931,9.67392187 16.3017931,8.853625 16.3017931,7.84532812 C16.3017931,6.83776562 17.1106552,6.01820312 18.1034483,6.01820312 C19.0969655,6.01820312 19.9051034,6.83776562 19.9051034,7.84532812 L19.9065517,7.84532812 Z" id="XMLID_297_"></path>
                        <path d="M18.5741379,8.0340625 C18.7965207,7.92375937 18.9427966,7.66819687 18.9427966,7.382525 C18.9427966,7.06674375 18.7935517,6.82219687 18.5346,6.71387656 C18.4258345,6.66675906 18.3052655,6.64871547 18.0878069,6.64871547 L17.2970483,6.64871547 L17.2970483,9.04351234 L17.7853345,9.04351234 L17.7853345,8.17768422 L18.1273448,8.17768422 L18.5800759,9.04351234 L19.1296241,9.04351234 L18.6294621,8.12701234 C18.6067314,8.08491062 18.5879472,8.05383187 18.574109,8.03382016 L18.5741379,8.0340625 Z M18.4510345,7.4025 C18.4510345,7.61128281 18.3295241,7.73583281 18.1256069,7.73583281 L17.7870724,7.73583281 L17.7870724,7.08326719 L18.0539172,7.08326719 C18.1841172,7.08326719 18.2424828,7.09788125 18.2919414,7.11960406 C18.422431,7.17373484 18.4500931,7.30407906 18.4500931,7.40329312 L18.4510345,7.4025 Z" id="XMLID_294_"></path>
                    </g>
                </g>
            </g>
        </g>
    </g>
</svg>