<svg xmlns="http://www.w3.org/2000/svg" xmlns:xlink="http://www.w3.org/1999/xlink" width="18" height="17" viewBox="0 0 18 17"><defs><path id="bjpya" d="M1150.04 401.75a.317.317 0 0 1-.32.313h-13.44a.317.317 0 0 1-.32-.313v-11.094c0-.172.143-.312.32-.312h2.762v.937c0 .26.215.469.48.469.264 0 .48-.21.48-.469v-.937h2.879v.937c0 .26.214.469.48.469.264 0 .48-.21.48-.469v-.937h2.878v.937c0 .26.215.469.48.469s.48-.21.48-.469v-.937h2.042c.176 0 .32.14.32.312zm-.32-12.344h-2.041v-.937a.474.474 0 0 0-.48-.469c-.265 0-.48.21-.48.469v.937h-2.879v-.937a.474.474 0 0 0-.48-.469c-.265 0-.48.21-.48.469v.937h-2.879v-.937a.474.474 0 0 0-.48-.469c-.264 0-.48.21-.48.469v.937h-2.761c-.707 0-1.28.56-1.28 1.25v11.094c0 .69.573 1.25 1.28 1.25h13.44c.708 0 1.28-.56 1.28-1.25v-11.094c0-.69-.572-1.25-1.28-1.25z"/><path id="bjpyb" d="M1138 396v-2h2v2z"/><path id="bjpyc" d="M1138 399v-2h2v2z"/><path id="bjpyd" d="M1142 399v-2h2v2z"/><path id="bjpye" d="M1142 396v-2h2v2z"/><path id="bjpyf" d="M1146 399v-2h2v2z"/><path id="bjpyg" d="M1146 396v-2h2v2z"/></defs><g><g transform="translate(-1134 -387)"><g><use fill="#fff" xlink:href="#bjpya"/><use fill="#fff" fill-opacity="0" stroke="#fff" stroke-miterlimit="50" stroke-width=".5" xlink:href="#bjpya"/></g><g><use fill="#fff" xlink:href="#bjpyb"/></g><g><use fill="#fff" xlink:href="#bjpyc"/></g><g><use fill="#fff" xlink:href="#bjpyd"/></g><g><use fill="#fff" xlink:href="#bjpye"/></g><g><use fill="#fff" xlink:href="#bjpyf"/></g><g><use fill="#fff" xlink:href="#bjpyg"/></g></g></g></svg>