<svg xmlns="http://www.w3.org/2000/svg" xmlns:xlink="http://www.w3.org/1999/xlink" width="49.42" height="36.94" viewBox="0 0 49.42 36.94"><defs><path id="2w72a" d="M972.91 906.91l-23.03 23.03-4.22-4.22.4-.4c.76-.76.97-1.3.97-2.45a3.86 3.86 0 0 0-3.99-3.99c-1.14 0-1.69.22-2.44.97l-.4.4-4.23-4.22L959 893l4.23 4.23-.4.4c-.76.75-.98 1.3-.98 2.44a3.86 3.86 0 0 0 3.99 4c1.14 0 1.7-.22 2.45-.98l.4-.4zm-23.03 21.42l13.44-13.44-2.17-2.17.8-.8 2.18 2.17 7.17-7.18-2.63-2.63c-.8.68-1.59.92-2.83.92a5.02 5.02 0 0 1-5.13-5.13c0-1.24.24-2.02.92-2.83l-2.63-2.63-7.17 7.17 2.28 2.29-.8.8-2.29-2.28-13.44 13.44 2.63 2.63c.81-.68 1.6-.92 2.83-.92 2.93 0 5.13 2.2 5.13 5.13 0 1.24-.24 2.02-.92 2.83z"/><path id="2w72b" d="M957.03 908.6l-2.28-2.28.8-.81 2.29 2.28z"/><path id="2w72c" d="M960.31 911.88l-2.28-2.28.8-.81 2.29 2.28z"/><path id="2w72d" d="M985.39 907.5l-19 19.01-4.23-4.23.4-.4c.76-.75.98-1.3.98-2.45a3.86 3.86 0 0 0-4-3.98c-1.13 0-1.68.21-2.44.97l-.4.4-.79-.79.8-.8a3.93 3.93 0 0 1 2.84-.92c2.92 0 5.13 2.2 5.13 5.13 0 1.24-.24 2.02-.92 2.83l2.63 2.63 9.41-9.41-1.88-1.88.8-.8 1.89 1.87 7.17-7.17-2.63-2.63c-.81.68-1.6.92-2.83.92a5.02 5.02 0 0 1-5.13-5.13c0-1.24.24-2.02.92-2.83l-8.7 8.7 9.5-9.51.8.79-.41.4c-.76.76-.97 1.3-.97 2.45a3.86 3.86 0 0 0 3.99 3.99c1.14 0 1.69-.22 2.44-.97l.4-.4zm-28.67 7.73l8.69-8.7z"/><path id="2w72e" d="M969.5 909.2l-2.28-2.28.8-.81 2.29 2.28z"/><path id="2w72f" d="M972.78 912.48l-2.28-2.28.8-.81 2.29 2.28z"/></defs><g><g transform="translate(-935.97 -893)"><g transform="rotate(-45 954.44 911.47)"><g><use fill="#fff" xlink:href="#2w72a"/><use fill="#fff" fill-opacity="0" stroke="#fff" stroke-miterlimit="50" stroke-width=".5" xlink:href="#2w72a"/></g><g><use fill="#fff" xlink:href="#2w72b"/><use fill="#fff" fill-opacity="0" stroke="#fff" stroke-miterlimit="50" stroke-width=".5" xlink:href="#2w72b"/></g><g><use fill="#fff" xlink:href="#2w72c"/><use fill="#fff" fill-opacity="0" stroke="#fff" stroke-miterlimit="50" stroke-width=".5" xlink:href="#2w72c"/></g></g><g opacity=".5" transform="rotate(-45 970.65 911.77)"><g opacity=".5"><use fill="#fff" xlink:href="#2w72d"/><use fill="#fff" fill-opacity="0" stroke="#fff" stroke-miterlimit="50" stroke-width=".5" xlink:href="#2w72d"/></g><g opacity=".5"><use fill="#fff" xlink:href="#2w72e"/><use fill="#fff" fill-opacity="0" stroke="#fff" stroke-miterlimit="50" stroke-width=".5" xlink:href="#2w72e"/></g><g opacity=".5"><use fill="#fff" xlink:href="#2w72f"/><use fill="#fff" fill-opacity="0" stroke="#fff" stroke-miterlimit="50" stroke-width=".5" xlink:href="#2w72f"/></g></g></g></g></svg>