<svg xmlns="http://www.w3.org/2000/svg" xmlns:xlink="http://www.w3.org/1999/xlink" width="37" height="32" viewBox="0 0 37 32"><defs><path id="n0maa" d="M1249.112 36.327l-1.534-2.19 1.39-.972 1.534 2.19zm-4.073-5.88l1.39-.97 1.664 2.366-1.39.97zm13.76 2.325l-1.48-2.113c-.01.006-.018.013-.027.02a3.708 3.708 0 0 1-5.163-.91 3.702 3.702 0 0 1 .91-5.158l.028-.018-1.482-2.113a1.127 1.127 0 0 0-1.568-.276l-5.858 4.1 1.282 1.83-1.39.972-1.282-1.829-14.119 9.884a1.124 1.124 0 0 0-.276 1.567l7.214 10.292c.357.51 1.06.633 1.569.276l14.118-9.883-1.266-1.806 1.39-.973 1.266 1.806 5.858-4.1a1.125 1.125 0 0 0 .277-1.568z"/><path id="n0mab" d="M1256.612 40.497l-1.534-2.19 1.39-.972 1.534 2.19zm-4.073-5.88l1.39-.97 1.664 2.366-1.39.97zm13.76 2.325l-1.48-2.113c-.01.006-.018.013-.027.02a3.708 3.708 0 0 1-5.163-.91 3.702 3.702 0 0 1 .91-5.158l.028-.018-1.482-2.113a1.127 1.127 0 0 0-1.568-.276l-5.858 4.1 1.282 1.83-1.39.972-1.282-1.829-14.119 9.884a1.124 1.124 0 0 0-.276 1.567l7.214 10.292c.357.51 1.06.633 1.569.276l14.118-9.883-1.266-1.806 1.39-.973 1.266 1.806 5.858-4.1a1.125 1.125 0 0 0 .277-1.568z"/></defs><g><g transform="translate(-1230 -20)"><g opacity=".5" transform="rotate(-23 1243.5 36)"><use fill="#28a0b6" xlink:href="#n0maa"/></g><g transform="rotate(12 1251 39.5)"><use fill="#28a0b6" xlink:href="#n0mab"/></g></g></g></svg>